<svg width="3515" height="3515" viewBox="0 0 3515 3515" fill="none" xmlns="http://www.w3.org/2000/svg">
<g clip-path="url(#clip0_233_5)">
<path d="M1341.67 2601.08C1337.12 2602.38 1316.97 2604.33 1307.21 2604.33C1270.15 2604.33 1249.99 2593.28 1249.99 2567.27C1249.99 2541.26 1270.15 2530.86 1307.21 2530.86C1319.57 2530.86 1333.87 2532.16 1341.67 2532.81V2601.08ZM1292.91 2359.19C1261.05 2358.54 1233.09 2362.44 1205.78 2368.95C1200.57 2387.15 1201.22 2413.81 1205.78 2432.67C1239.59 2424.87 1258.45 2424.22 1279.9 2424.22C1321.52 2424.22 1341.67 2441.12 1341.67 2475.58V2478.83C1329.32 2477.53 1314.37 2476.23 1303.96 2476.23C1235.04 2476.23 1175.87 2500.94 1175.87 2567.27C1175.87 2642.04 1229.18 2667.4 1306.56 2667.4C1342.97 2667.4 1382.64 2660.9 1419.05 2649.85V2481.44C1419.05 2400.81 1375.49 2361.14 1292.91 2359.19Z" fill="#CE1C30"/>
<path d="M1144 2363.09C1105.64 2363.09 1083.53 2378.05 1062.72 2404.71C1060.77 2391.06 1058.17 2380 1053.62 2366.34C1045.82 2363.74 1032.16 2363.09 1020.46 2363.09C1009.4 2363.09 995.099 2364.39 987.945 2366.34V2660.9C997.699 2663.5 1013.96 2664.15 1028.26 2664.15C1041.91 2664.15 1060.12 2662.85 1068.58 2660.9V2517.2C1068.58 2459.98 1098.49 2429.42 1138.8 2429.42C1145.95 2429.42 1158.31 2429.42 1165.46 2430.72C1170.01 2411.86 1170.66 2384.55 1166.76 2365.69C1162.21 2364.39 1150.51 2363.09 1144 2363.09Z" fill="#CE1C30"/>
<path d="M777.27 2601.73C768.817 2601.73 755.813 2601.73 746.709 2598.48V2436.57C757.763 2430.72 773.37 2427.47 793.524 2427.47C833.839 2427.47 855.3 2455.43 855.3 2508.1C855.3 2563.37 829.939 2601.73 777.27 2601.73ZM807.181 2360.49C783.771 2360.49 761.013 2365.69 746.709 2372.85V2228.49C723.951 2236.95 699.891 2248.65 679.733 2264.91C669.332 2273.36 666.079 2281.82 666.079 2294.17V2650.5C687.537 2659.6 731.102 2667.4 772.717 2667.4C878.058 2667.4 938.527 2603.03 938.527 2510.05C938.527 2417.71 895.612 2360.49 807.181 2360.49Z" fill="#CE1C30"/>
<path d="M1653.79 2597.18C1640.13 2601.08 1630.38 2601.73 1619.32 2601.73C1566 2601.73 1545.2 2566.62 1545.2 2515.9C1545.2 2459.33 1566 2424.87 1618.67 2424.87C1634.28 2424.87 1644.03 2426.82 1653.79 2429.42V2597.18ZM1653.79 2294.17V2365.04C1639.48 2361.14 1624.53 2360.49 1611.52 2360.49C1522.44 2360.49 1461.97 2420.31 1461.97 2515.9C1461.97 2613.44 1521.14 2667.4 1613.47 2667.4C1655.74 2667.4 1697.35 2661.55 1734.41 2649.2V2228.49C1711.66 2236.95 1687.6 2248.65 1667.44 2264.91C1657.04 2273.36 1653.79 2281.82 1653.79 2294.17Z" fill="#CE1C30"/>
<path d="M2230.55 2485.99L2198.04 2472.33C2179.18 2464.53 2168.13 2458.03 2168.13 2445.67C2168.13 2426.82 2185.03 2422.92 2207.14 2422.92C2229.25 2422.92 2252 2425.52 2283.22 2435.27C2287.12 2413.81 2287.12 2393.66 2283.22 2374.8C2263.71 2364.39 2227.3 2359.19 2195.44 2359.19C2133.01 2359.19 2085.55 2393.01 2085.55 2443.72C2085.55 2489.24 2105.05 2512 2159.67 2534.11L2185.03 2544.51C2209.09 2554.26 2216.24 2560.11 2216.24 2575.72C2216.24 2599.13 2192.84 2603.03 2173.33 2603.03C2140.82 2603.03 2116.11 2596.53 2084.89 2585.47C2079.69 2604.33 2079.69 2629.04 2084.89 2648.55C2111.56 2662.85 2147.97 2667.4 2186.33 2667.4C2248.1 2667.4 2297.52 2634.89 2297.52 2576.37C2297.52 2528.25 2276.72 2505.5 2230.55 2485.99Z" fill="#CE1C30"/>
<path d="M2481.54 2601.08C2441.23 2601.08 2414.56 2569.22 2414.56 2513.3C2414.56 2459.98 2436.02 2425.52 2482.19 2425.52C2501.7 2425.52 2515.35 2428.77 2533.56 2435.92C2538.76 2417.71 2548.51 2396.91 2562.17 2379.35C2536.81 2366.34 2512.1 2359.19 2471.79 2359.19C2382.7 2359.19 2331.33 2422.27 2331.33 2513.3C2331.33 2607.58 2384 2667.4 2475.04 2667.4C2508.2 2667.4 2538.76 2661.55 2563.47 2647.9C2552.41 2633.59 2540.06 2614.09 2532.91 2591.33C2510.15 2600.43 2500.4 2601.08 2481.54 2601.08Z" fill="#CE1C30"/>
<path d="M2707.17 2602.38C2662.3 2602.38 2648.65 2565.97 2648.65 2513.95C2648.65 2463.23 2662.3 2424.22 2707.17 2424.22C2753.33 2424.22 2766.34 2461.93 2766.34 2513.95C2766.34 2568.57 2751.38 2602.38 2707.17 2602.38ZM2707.17 2359.19C2616.79 2359.19 2566.07 2420.96 2566.07 2513.95C2566.07 2608.23 2619.39 2667.4 2707.17 2667.4C2798.2 2667.4 2848.92 2606.93 2848.92 2513.95C2848.92 2420.31 2798.2 2359.19 2707.17 2359.19Z" fill="#CE1C30"/>
<path d="M1859.26 2478.18C1865.11 2442.42 1886.57 2420.96 1919.08 2420.96C1955.5 2420.96 1969.8 2445.67 1971.1 2478.18H1859.26ZM1920.38 2359.19C1833.25 2359.19 1779.93 2417.71 1779.93 2515.25C1779.93 2612.79 1836.5 2667.4 1933.39 2667.4C1966.55 2667.4 2002.31 2661.55 2025.07 2650.5C2029.62 2631.64 2029.62 2606.93 2025.07 2588.08C1995.16 2596.53 1969.8 2601.73 1941.84 2601.73C1896.97 2601.73 1865.76 2584.82 1859.26 2537.36H2042.63C2045.23 2530.21 2045.88 2506.15 2045.88 2496.39C2045.88 2408.61 1996.46 2359.19 1920.38 2359.19Z" fill="#CE1C30"/>
<path d="M1723.24 1104.42C1649.94 1104.42 1569.8 1111.15 1490.64 1124.62C1570.78 1021.73 1697.83 955.377 1839.54 955.377C1944.12 955.377 2048.69 994.804 2119.06 1053.46C2131.76 1064.04 2141.54 1065 2151.31 1055.38C2161.08 1045.77 2160.11 1036.15 2149.36 1023.65C2057.49 916.915 1922.62 844.795 1763.31 847.68C1555.14 851.527 1378.25 983.263 1310.81 1165.96C1249.24 1185.2 1192.56 1208.27 1142.71 1236.16C1129.03 1243.85 1124.14 1253.47 1129.03 1265.01C1133.92 1275.58 1143.69 1279.43 1157.37 1275.58C1200.38 1263.08 1244.35 1252.51 1290.29 1242.89C1285.4 1266.93 1282.47 1291.93 1282.47 1317.9C1278.56 1486.17 1368.47 1645.79 1507.25 1733.3C1520.94 1741.95 1532.66 1741.95 1540.48 1731.38C1548.3 1720.8 1547.33 1711.18 1535.6 1700.6C1447.64 1621.75 1398.77 1504.44 1398.77 1388.09C1398.77 1329.43 1410.5 1272.7 1432.98 1221.74C1478.91 1217.89 1528.76 1215 1583.48 1215C1939.23 1215 2239.27 1332.32 2239.27 1486.17C2239.27 1564.06 2140.56 1641.95 2023.28 1693.87C1994.94 1706.38 1992.01 1715.03 1995.91 1727.53C1999.82 1739.07 2012.53 1742.91 2027.19 1738.11C2232.43 1670.79 2387.82 1560.21 2387.82 1426.56C2387.82 1244.82 2094.63 1104.42 1723.24 1104.42Z" fill="#CE1C30"/>
<path d="M1893.11 2028.82V1639.46C1893.11 1624.54 1878.7 1619.09 1866.82 1625.86L1767.84 1682.83V2047.6L1874.17 2047.74C1884.63 2047.75 1893.11 2039.28 1893.11 2028.82Z" fill="#CE1C30"/>
<path d="M1647.36 1766.28V2035.54C1647.36 2042.27 1652.82 2047.74 1659.56 2047.74H1734.46V1702.02L1659.69 1745.07C1652.06 1749.41 1647.36 1756.25 1647.36 1766.28Z" fill="#CE1C30"/>
</g>
<defs>
<clipPath id="clip0_233_5">
<rect width="3515" height="3515" fill="white"/>
</clipPath>
</defs>
</svg>
