<svg width="3306" height="3306" viewBox="0 0 3306 3306" fill="none" xmlns="http://www.w3.org/2000/svg">
<path d="M1496.71 456.655C1427.74 458.294 1377.14 460.719 1284.38 466.438C1241.47 468.998 1194.64 472.767 1161.66 476.067C1153.38 476.967 1136.06 478.627 1123.26 479.837C1069.5 485.111 989.69 495.184 956.12 500.909C949.031 502.118 938.642 503.778 932.783 504.678C927.059 505.438 916.81 507.233 910.186 508.448C903.567 509.657 892.419 511.767 885.35 512.957C860.488 517.176 818.189 525.765 794.247 531.489C787.608 533.149 775.715 535.999 767.886 537.819C760.052 539.613 752.988 541.273 752.088 541.428C707.949 551.957 664.13 573.204 630.404 600.755C597.574 627.411 568.223 670.475 553.46 713.24C551.06 719.864 548.636 726.638 547.896 728.298C545.336 734.022 534.188 782.195 526.199 821.665C525.009 828.284 522.899 838.068 521.689 843.497C520.474 848.906 518.84 858.395 517.78 864.569C516.865 870.738 515.67 878.277 514.91 881.127C512.645 889.726 503.467 948.443 497.588 991.057C491.868 1032.32 488.099 1062.3 484.799 1092.7C483.14 1107.6 481.48 1122.21 481.185 1125.08C480.735 1127.93 479.37 1142.54 478.02 1157.46C476.81 1172.36 475.016 1190.58 474.096 1198.12C470.931 1225.81 463.097 1346.44 459.198 1431.52C456.188 1494.6 454.233 1629.68 455.288 1703.32C456.343 1795.17 458.588 1877.25 460.698 1905.85C461.462 1917.44 462.962 1941.85 463.862 1960.06C464.762 1978.28 465.972 2001.62 466.732 2012.01C470.191 2064.11 472.906 2098.29 474.251 2109.12C475.016 2115.76 476.81 2133.38 478.02 2148.12C479.23 2162.89 481.03 2180.5 481.79 2187.28C482.69 2194.06 484.349 2208.66 485.539 2219.81C489.309 2255.49 492.178 2278.83 494.583 2294.35C495.793 2302.63 497.903 2316.79 499.092 2325.97C503.467 2359.09 508.581 2391.31 514.15 2420.84C515.36 2427.46 517.315 2438.61 518.68 2445.68C521.239 2460.74 527.114 2490.71 531.333 2509.67C545.781 2576.1 552.11 2595.95 569.123 2628.64C573.787 2637.67 579.806 2648.21 582.521 2651.98C585.076 2655.75 588.845 2661.16 590.8 2664.03C599.389 2676.82 623.94 2701.82 637.493 2711.47C639.738 2713.11 644.113 2716.27 646.962 2718.54C649.992 2720.94 652.841 2722.75 653.601 2722.75C654.206 2722.75 655.711 2723.8 656.901 2725.02C662.78 2730.74 704.199 2750.47 721.952 2755.74C725.271 2756.79 729.336 2758.14 730.996 2758.9C734.92 2760.7 757.042 2766.26 783.704 2772.3C795.302 2775.01 807.195 2777.86 810.05 2778.62C816.979 2780.42 860.643 2789.15 893.628 2795.19C912.591 2798.64 949.501 2804.52 972.678 2807.84C981.411 2809.03 992.56 2810.69 997.524 2811.59C1015.74 2814.75 1091.04 2823.5 1138.32 2828.01C1155.33 2829.67 1176.26 2831.63 1184.99 2832.52C1199.15 2834.02 1213.6 2835.23 1282.87 2840.2C1293.26 2840.96 1316.91 2842.31 1335.58 2843.22C1354.25 2844.12 1380.3 2845.47 1393.56 2846.23C1500.77 2852.4 1807.35 2852.4 1913.06 2846.23C1926.32 2845.33 1952.37 2844.12 1971.04 2843.22C2003.11 2841.72 2014.86 2840.96 2065.15 2837.19C2129.59 2832.23 2224.33 2823.03 2256.39 2818.52C2265.57 2817.17 2281.39 2815.06 2291.78 2813.7C2330.17 2808.74 2382.88 2800.75 2412.99 2795.19C2445.98 2789.15 2489.64 2780.42 2496.57 2778.62C2499.42 2777.86 2511.32 2775.01 2522.92 2772.3C2548.97 2766.42 2571.56 2760.7 2575.62 2758.9C2580.63 2757.1 2585.65 2755.34 2590.68 2753.63C2603.02 2749.57 2643.99 2730.13 2647.45 2726.81C2648.5 2725.76 2651.51 2723.51 2654.07 2721.99C2665.83 2714.63 2671.24 2710.41 2681.94 2700.76C2693.99 2689.76 2710.71 2671.71 2714.76 2665.53C2716.11 2663.42 2719.73 2658.31 2722.73 2654.24C2725.9 2650.03 2728.46 2646.26 2728.46 2645.66C2728.46 2645.05 2730.88 2640.83 2733.73 2636.32C2736.6 2631.81 2740.06 2625.17 2741.43 2621.55C2742.93 2618.1 2744.43 2614.33 2745.04 2613.59C2747.89 2609.82 2758.43 2579.84 2762.94 2562.83C2770.03 2536.49 2783.27 2474.29 2788.09 2444.92C2789.3 2437.4 2790.65 2430.33 2791.1 2429.12C2792.47 2425.8 2800.75 2374.15 2808.27 2321.46C2809.93 2309.86 2811.59 2298.26 2812.04 2295.86C2813.25 2288.92 2818.66 2242.7 2821.08 2218.31C2822.27 2206.26 2823.93 2192.4 2824.83 2187.43C2825.75 2182.45 2827.39 2166.21 2828.6 2151.29C2829.81 2136.39 2831.47 2118.01 2832.21 2110.63C2833.11 2103.11 2834.48 2085.95 2835.37 2072.23C2836.27 2058.53 2837.64 2041.67 2838.38 2034.59C2839.3 2027.52 2840.94 2001.46 2842.15 1976.62C2843.52 1951.77 2845.02 1921.2 2845.92 1908.86C2852.7 1799.38 2852.7 1512.08 2845.92 1399.15C2845.16 1386.33 2843.81 1361.2 2842.91 1343.43C2842 1325.66 2840.65 1302.16 2839.89 1291.47C2838.99 1280.63 2837.04 1253.97 2835.37 1232C2833.71 1210.01 2832.05 1189.37 2831.6 1186.07C2831.15 1182.75 2829.81 1168.14 2828.6 1153.69C2827.39 1139.24 2826.04 1125.68 2825.59 1123.58C2825.14 1121.47 2823.48 1107.6 2821.82 1092.7C2817.92 1056.71 2813.09 1016.97 2812.04 1012.3C2811.59 1010.19 2809.93 998.146 2808.27 985.782C2800.89 929.48 2787.2 851.016 2775.44 797.568C2773.78 790.029 2771.09 777.841 2769.43 770.462C2765.21 751.184 2760.23 731.757 2758.59 728.298C2757.83 726.638 2756.48 722.578 2755.42 719.259C2752.1 708.125 2735.39 670.925 2731.17 665.046C2730.56 664.146 2725.76 657.077 2720.62 649.248C2709.94 633.136 2682.54 604.524 2666.12 592.476C2633.61 568.534 2597.46 552.267 2550.79 540.823C2542.74 538.857 2534.71 536.846 2526.69 534.789C2521.12 533.149 2509.97 530.73 2486.03 525.765C2479.24 524.343 2472.47 522.885 2465.7 521.391C2436.64 514.322 2342.07 498.954 2280.49 491.125C2268.13 489.62 2255.94 487.96 2253.38 487.375C2248.85 486.456 2227.02 484.211 2182.61 479.837C2170.25 478.627 2153.24 476.827 2144.96 476.067C2136.68 475.167 2121.77 473.817 2111.84 472.902C2101.9 472.163 2085.64 470.793 2075.7 470.053C2041.97 467.183 1948.31 461.774 1896.5 459.504C1796.36 455.135 1611.44 453.785 1496.71 456.655H1496.71ZM833.247 1474.14C834.147 1474.88 838.521 1476.25 842.875 1477.3C851.019 1479.25 862.463 1484.52 871.032 1490.24C877.811 1494.76 893.783 1511.92 896.928 1517.95C898.453 1520.96 900.093 1523.68 900.543 1524.13C901.012 1524.58 902.357 1527.58 903.567 1530.9C904.622 1534.2 905.967 1537.68 906.732 1538.42C908.681 1541.29 910.951 1559.2 910.951 1572.46C910.951 1585.41 908.976 1600.62 906.422 1606.19C898.298 1624.86 894.373 1631.02 884.14 1641.88C874.646 1651.67 870.742 1654.68 857.793 1661.01C847.245 1666.27 839.711 1668.99 833.697 1669.57C828.872 1670.18 824.653 1671.23 824.203 1671.84C823.153 1673.66 790.478 1673.66 790.478 1671.84C790.478 1671.23 786.708 1670.18 781.884 1669.57C777.219 1668.99 771.36 1667.62 768.801 1666.57C765.536 1665.1 762.221 1663.74 758.862 1662.5C755.992 1661.46 753.278 1660.24 752.828 1659.79C752.378 1659.19 750.113 1657.84 747.553 1656.63C738.825 1652.27 720.757 1632.23 715.488 1621.24C712.618 1615.37 709.924 1609.64 709.164 1608.45C704.044 1598.2 703.144 1551.53 707.949 1540.69C709.319 1537.82 711.268 1533.01 712.323 1530.14C713.378 1527.29 714.588 1524.57 715.038 1524.13C715.488 1523.68 717.288 1520.65 718.947 1517.35C721.817 1511.77 739.724 1492.49 742.284 1492.49C742.884 1492.49 744.254 1491.44 745.309 1490.09C748.158 1486.92 762.766 1479.85 771.655 1477.6C775.87 1476.54 780.539 1475.03 782.199 1474.27C783.858 1473.53 787.918 1472.77 791.222 1472.32C800.106 1471.42 831.292 1472.77 833.247 1474.14ZM2473.98 1579.08V1655.12H2181.85V1553.34L2198.12 1550.77C2234.11 1545.2 2256.55 1541.43 2257.9 1540.53C2258.8 1539.93 2266.18 1538.73 2274.45 1537.68C2282.73 1536.63 2290.27 1535.26 2291.02 1534.65C2291.93 1534.07 2299 1532.7 2306.84 1531.65C2314.66 1530.75 2324.9 1528.93 2329.43 1527.74C2333.94 1526.69 2343.43 1525.02 2350.5 1524.13C2357.59 1523.21 2364.66 1521.86 2366.32 1521.25C2367.98 1520.51 2375.5 1519.15 2382.88 1518.09C2390.41 1517.19 2398.83 1515.84 2401.7 1514.93C2404.55 1514.19 2415.41 1512.08 2425.8 1510.42C2436.19 1508.76 2449.75 1506.52 2455.91 1505.46C2462.08 1504.25 2468.71 1503.35 2470.66 1503.19L2473.98 1503.04V1579.08ZM1227.16 1646.24V1736.44H1377.74V1870.47H1227.02L1227.61 2010.06C1228.07 2160.49 1227.76 2153.1 1235.91 2171.62C1242.08 2185.93 1259.53 2200.54 1274.59 2204.15C1277.15 2204.76 1280.02 2205.95 1281.23 2206.87C1284.08 2209.12 1345.07 2209.12 1347.79 2206.71C1348.98 2205.81 1354.41 2204.6 1360.12 2204L1370.22 2202.94V2335.01L1366.14 2336.81C1362.39 2338.47 1345.07 2341.18 1321.29 2344.04C1287.4 2347.96 1225.65 2348.41 1222.04 2344.64C1221.14 2343.9 1218.74 2343.29 1216.47 2343.29C1210.6 2343.29 1186.2 2338.76 1184.39 2337.41C1183.49 2336.81 1179.43 2335.3 1175.21 2334.41C1171.15 2333.35 1167.09 2331.98 1166.17 2331.4C1165.43 2330.64 1161.97 2329.29 1158.65 2328.23C1155.33 2327.18 1152.32 2325.81 1151.87 2325.36C1151.42 2324.91 1148.71 2323.25 1145.84 2321.59C1133.34 2314.98 1129.59 2312.58 1122.95 2306.99C1119.05 2303.83 1115.43 2301.13 1114.67 2301.13C1113.17 2300.97 1101.73 2288.47 1092.7 2277.04C1085.77 2268.15 1075.52 2251.14 1072.06 2242.39C1070.85 2239.54 1069.5 2236.82 1069.05 2236.37C1068.45 2235.92 1066.94 2231.26 1065.44 2225.83C1064.08 2220.42 1062.28 2214.69 1061.52 2213.03C1060.78 2211.37 1058.96 2204.6 1057.77 2197.98C1056.49 2191.69 1055.13 2185.41 1053.69 2179.15C1052.63 2174.64 1051.89 2121.62 1051.44 2021.35L1050.84 1870.47H963.639V1736.44H1050.99V1584.65L1061.22 1583.6C1066.79 1583.01 1072.06 1581.95 1072.82 1581.35C1073.72 1580.74 1081.1 1579.4 1089.38 1578.34C1097.66 1577.29 1105.2 1575.76 1105.94 1575.18C1106.84 1574.57 1116.33 1572.91 1127.03 1571.56C1137.87 1570.04 1147.36 1568.4 1148.1 1567.79C1149 1567.19 1153.98 1566.13 1159.39 1565.68C1166.47 1564.83 1173.51 1563.68 1180.48 1562.23C1196.6 1558.91 1224.75 1554.53 1226.1 1555.29C1226.71 1555.59 1227.15 1596.56 1227.15 1646.24L1227.16 1646.24ZM1726.34 1722.13C1747.42 1723.34 1771.22 1726.05 1773.02 1727.4C1773.92 1728 1777.53 1729.06 1781.3 1729.51C1789.89 1730.88 1810.83 1737.04 1823.46 1742.16C1834.01 1746.38 1857.5 1758.12 1861.11 1761.15C1862.33 1762.05 1865.02 1763.84 1867.13 1764.76C1869.24 1765.81 1875.88 1771.07 1881.73 1776.2C1887.61 1781.47 1893.04 1785.99 1893.78 1786.28C1896.05 1787.33 1922.84 1819.87 1922.84 1821.66C1922.84 1822.11 1924.21 1824.54 1925.87 1826.78C1929.03 1831.31 1942.43 1857.36 1942.43 1859.02C1942.43 1859.61 1943.64 1862.93 1945.28 1866.39C1946.78 1869.86 1948.6 1875.14 1949.21 1877.99C1949.81 1880.86 1950.87 1883.86 1951.45 1884.76C1952.05 1885.52 1953.42 1890.33 1954.48 1895.31C1955.38 1900.27 1956.59 1905.41 1957.04 1906.6C1957.64 1907.81 1958.99 1914.27 1960.2 1920.91C1962 1930.85 1962.45 1968.34 1963.05 2134.28L1963.66 2335.75H1799.38L1799.23 2317.99C1799.07 2308.36 1798.62 2294.35 1798.01 2286.97L1797.11 2273.42L1792.75 2279.44C1785.83 2288.63 1763.08 2310.31 1754.06 2316.33C1734.31 2329.29 1729.06 2332.43 1723.63 2334.25C1720.31 2335.15 1715.96 2336.97 1713.85 2338.15C1711.58 2339.21 1706.02 2341.03 1701.49 2341.93C1696.97 2342.98 1692.46 2344.35 1691.7 2344.93C1684.03 2350.66 1589.16 2350.52 1581.77 2344.8C1581.03 2344.19 1575.6 2342.85 1569.73 2341.79C1564.01 2340.74 1557.23 2339.07 1554.67 2337.86C1552.27 2336.81 1545.78 2334.09 1540.53 2331.98C1534.47 2329.35 1528.55 2326.44 1522.76 2323.25C1518.76 2320.78 1514.69 2318.43 1510.55 2316.19C1504.23 2312.71 1502.12 2310.76 1484.96 2293.59C1467.34 2275.98 1465.08 2273.58 1465.08 2271.92C1465.08 2271.31 1463.12 2267.99 1460.88 2264.53C1458.45 2261.08 1455 2254.75 1453.18 2250.67C1451.38 2246.47 1448.96 2241.49 1447.91 2239.38C1446.72 2237.27 1445.06 2231.86 1444 2227.33C1442.95 2222.82 1441.6 2218.31 1440.99 2217.55C1439.33 2215.44 1436.46 2194.05 1436.46 2184.72C1436.46 2180.37 1435.72 2175.99 1434.82 2175.09C1433.01 2173.27 1433.45 2167.26 1438.12 2130.96C1439.02 2123.89 1440.39 2117.41 1440.99 2116.66C1441.6 2115.76 1442.94 2111.84 1443.84 2107.78C1445.8 2099.95 1449.88 2089.71 1454.1 2082.02C1455.45 2079.46 1457.25 2076 1458.16 2074.19C1459.06 2072.24 1460.27 2070.73 1461.01 2070.73C1461.62 2070.73 1462.07 2069.83 1462.07 2068.78C1462.07 2067.12 1478.63 2045.58 1481.5 2043.63C1482.1 2043.18 1483.16 2041.68 1483.61 2040.17C1484.21 2038.51 1486.01 2037.01 1487.67 2036.56C1489.33 2036.11 1490.68 2035.19 1490.68 2034.58C1490.68 2033.08 1515.98 2013.2 1524.56 2008.24C1530.73 2004.47 1544.59 1997.4 1564.77 1987.76C1567.64 1986.26 1595.78 1977.23 1608.14 1973.76C1612.65 1972.41 1621.54 1970.59 1627.71 1969.69C1633.88 1968.64 1639.76 1967.43 1640.52 1966.84C1641.42 1966.23 1650.44 1964.87 1660.85 1963.97C1671.24 1963.07 1684.03 1961.57 1689.45 1960.8C1710.84 1957.64 1785.97 1958.25 1793.96 1961.57C1796.67 1962.76 1796.8 1962.17 1795.76 1949.36C1795.17 1941.98 1794.11 1935.65 1793.51 1935.2C1792.75 1934.75 1791.85 1931.9 1791.24 1928.88C1790.19 1923.31 1784.46 1911.13 1779.05 1902.83C1775.58 1897.57 1760.97 1882.49 1759.31 1882.49C1758.73 1882.49 1756.17 1880.99 1753.59 1879.04C1746.97 1874.22 1736.29 1869.41 1729.8 1868.2C1726.64 1867.6 1724.08 1866.54 1724.08 1865.94C1724.08 1859.32 1626.81 1858.26 1597.6 1864.74C1593.83 1865.49 1585.1 1867.14 1578.02 1868.36C1570.94 1869.55 1563.87 1871.21 1562.21 1871.97C1560.55 1872.71 1555.14 1874.08 1550.16 1874.98C1545.2 1875.88 1539.77 1877.24 1538.11 1877.99C1536.45 1878.75 1530.44 1880.41 1524.71 1881.75C1518.99 1883.1 1513.56 1884.6 1512.66 1885.36C1511.76 1885.97 1507.7 1887.47 1503.48 1888.53C1499.43 1889.58 1495.21 1891.09 1494.45 1891.69C1493.55 1892.3 1489.48 1893.64 1485.4 1894.7C1481.2 1895.6 1475.32 1897.71 1472.32 1899.21C1469.15 1900.87 1466.28 1902.08 1465.84 1902.08C1465.38 1902.08 1465.08 1870.6 1465.08 1832.21C1465.08 1777.84 1465.54 1762.04 1467.04 1760.83C1468.1 1759.93 1472.32 1758.43 1476.38 1757.38C1480.6 1756.48 1484.66 1755.11 1485.4 1754.51C1486.32 1753.9 1491.28 1752.11 1496.71 1750.74C1502.12 1749.23 1507.23 1747.59 1508 1746.99C1508.9 1746.22 1513.56 1745.01 1518.39 1743.98C1523.37 1742.93 1528.49 1741.56 1529.68 1740.81C1531.04 1740.21 1537.21 1738.55 1543.38 1737.2C1548.18 1736.27 1552.95 1735.21 1557.7 1734.04C1559.34 1733.57 1567.78 1732.23 1576.5 1731.01C1585.25 1729.82 1594.43 1728.16 1596.83 1727.4C1605.58 1724.7 1684.48 1719.73 1702.25 1720.78C1707.21 1721.07 1718.07 1721.68 1726.34 1722.13L1726.34 1722.13ZM895.873 2036.11V2335.75H719.707V1736.44H895.873V2036.11ZM2227.02 1923.15C2227.02 2101.45 2227.78 2135.94 2231.4 2140.76C2232.14 2141.5 2233.06 2144.51 2233.66 2147.38C2235.77 2158.67 2245.55 2175.09 2256.68 2186.23C2262.56 2192.26 2269.18 2197.53 2271.29 2198.12C2273.55 2198.59 2275.21 2199.49 2275.21 2200.09C2275.21 2200.68 2280.49 2202.79 2286.95 2204.89C2296.6 2207.92 2301.72 2208.51 2316.77 2208.51C2327.32 2208.51 2336.5 2207.77 2338.61 2206.87C2340.56 2205.82 2345.23 2204.31 2348.99 2203.25C2352.76 2202.2 2359.54 2199.04 2364.05 2196.01C2372.49 2190.6 2388.15 2176.15 2388.15 2173.73C2388.15 2172.99 2390.26 2169.67 2392.66 2166.5C2395.22 2163.18 2397.19 2159.88 2397.19 2158.98C2397.19 2158.06 2398.54 2154.9 2400.04 2151.89C2401.7 2148.88 2403.5 2143.77 2404.11 2140.6C2404.56 2137.29 2405.61 2133.99 2406.37 2133.23C2410.14 2128.4 2410.75 2098 2410.75 1921.35V1736.44H2586.91V2335.76H2503.49C2438.3 2335.76 2419.61 2335.31 2418.72 2333.8C2418.11 2332.9 2417.37 2318.59 2417.06 2302.18C2416.76 2285.92 2416.01 2272.52 2415.42 2272.52C2414.82 2272.52 2413 2274.32 2411.2 2276.58C2402.76 2288.03 2389.5 2300.98 2368.73 2318.14C2365.72 2320.54 2359.55 2323.86 2345.99 2330.48C2339.82 2333.49 2333.05 2336.96 2330.94 2338.02C2328.83 2339.07 2323.11 2340.73 2318.12 2341.79C2313.16 2342.84 2308.79 2344.19 2308.34 2344.8C2306.84 2347.05 2280.18 2349.31 2253.84 2349.31C2227.94 2349.31 2206.85 2347.51 2200.68 2344.93C2199.02 2344.19 2193.3 2342.38 2187.87 2341.03C2182.46 2339.68 2177.48 2337.86 2176.58 2337.26C2175.84 2336.65 2172.23 2335.15 2168.75 2334.09C2165.14 2333.19 2162.29 2331.85 2162.29 2331.24C2162.29 2330.64 2159.58 2329.29 2156.26 2328.23C2152.96 2327.18 2150.24 2325.81 2150.24 2325.21C2150.24 2324.62 2148.58 2323.41 2146.63 2322.51C2133.68 2316.64 2104.31 2289.08 2091.96 2271.31C2084.43 2260.47 2072.83 2238.78 2070.43 2230.81C2069.53 2227.64 2067.71 2222.98 2066.66 2220.56C2065.6 2218 2063.81 2212.59 2062.89 2208.51C2061.99 2204.31 2060.64 2199.93 2059.88 2198.43C2059.14 2197.06 2057.77 2189.99 2056.87 2182.61C2055.97 2175.38 2054.31 2168.01 2053.41 2166.35C2052.05 2164.1 2051.45 2110.33 2051.15 1949.81L2050.7 1736.44H2227.03L2227.02 1923.15Z" fill="#FF6200"/>
<path d="M1706.76 2069.38C1699.4 2070.13 1691.86 2071.33 1690.2 2072.08C1688.54 2073 1683.13 2074.34 1678.15 2075.4C1673.35 2076.3 1666.86 2078.11 1663.85 2079.46C1641.26 2089.25 1630.27 2095.73 1622.75 2103.56C1615.52 2111.1 1608.28 2125.1 1607.09 2133.83C1606.77 2136.84 1605.72 2140.76 1604.82 2142.4C1603.16 2145.88 1603.77 2156.56 1606.48 2170.56C1609.49 2185.77 1621.54 2204.31 1632.22 2209.88C1651.2 2219.66 1654.81 2221.16 1665.36 2222.82C1684.32 2225.67 1720.47 2224.03 1728.3 2219.81C1729.65 2219.05 1735.23 2216.49 1740.64 2214.09C1746.07 2211.54 1753.14 2207.45 1756.46 2204.89C1759.78 2202.34 1763.53 2199.33 1764.89 2198.27C1773.47 2191.81 1789.29 2165.6 1791.4 2154.76C1791.85 2152.05 1793.06 2148.88 1793.96 2147.67C1795.01 2146.32 1795.76 2132.46 1796.07 2107.62L1796.67 2069.67L1788.53 2068.78C1777.53 2067.41 1723.34 2067.88 1706.76 2069.38Z" fill="#FF6200"/>
</svg>
