<svg width="2636" height="2636" viewBox="0 0 2636 2636" fill="none" xmlns="http://www.w3.org/2000/svg">
<g clip-path="url(#clip0_233_212)">
<path d="M709.05 892.511C769.324 829.189 849.276 792.199 943.204 792.199C1126.19 792.199 1247.51 925.8 1270.72 1125.94C1278.24 1190.94 1278.17 1282.57 1278.1 1388.71C1278.09 1399.59 1278.08 1410.63 1278.08 1421.81V1819.42H1026.45V1525.33C1026.45 1525.33 1025.93 1273.64 1024.4 1226.6C1017.64 1021.73 896.356 892.997 709.025 892.858C652.506 952.572 622.223 1025.58 617.757 1137.22C617.143 1152.79 617.297 1207.98 617.501 1280.71C617.606 1318.4 617.725 1360.8 617.757 1404.84C617.943 1596.53 617.757 1819.46 617.757 1819.46H366.12V1366.87C366.12 1351.36 365.837 1335.72 365.553 1320.02C364.983 1288.44 364.407 1256.61 366.12 1225.09C368.963 1172.56 378.051 1120.91 402.567 1072.93C458.683 963.013 573.664 892.242 696.244 892.242C700.526 892.242 704.811 892.341 709.05 892.505V892.511Z" fill="#820AD1"/>
<path d="M2269.88 1410.91C2271.59 1379.4 2271.02 1347.57 2270.45 1315.98C2270.16 1300.28 2269.88 1284.64 2269.88 1269.13V816.545H2018.25C2018.25 816.545 2018.06 1039.48 2018.25 1231.16C2018.28 1275.2 2018.39 1317.6 2018.5 1355.28C2018.7 1428.03 2018.86 1483.22 2018.25 1498.79C2013.78 1610.42 1983.49 1683.43 1926.98 1743.15C1739.65 1743.02 1618.37 1614.27 1611.61 1409.4C1610.07 1362.36 1609.42 1245.63 1609.42 1110.43V816.353L1357.97 816.582V1214.19C1357.97 1225.37 1357.96 1236.4 1357.96 1247.29C1357.88 1353.43 1357.81 1445.06 1365.34 1510.06C1388.5 1710.2 1509.82 1843.8 1692.8 1843.8C1786.73 1843.8 1866.68 1806.81 1926.96 1743.49C1931.19 1743.65 1935.48 1743.75 1939.76 1743.75C2062.34 1743.75 2177.32 1672.98 2233.44 1563.06C2257.95 1515.08 2267.04 1463.44 2269.88 1410.9L2269.88 1410.91Z" fill="#820AD1"/>
</g>
<defs>
<clipPath id="clip0_233_212">
<rect width="2636" height="2636" fill="white"/>
</clipPath>
</defs>
</svg>
