<svg width="3838" height="3838" viewBox="0 0 3838 3838" fill="none" xmlns="http://www.w3.org/2000/svg">
<path fill-rule="evenodd" clip-rule="evenodd" d="M1139.83 1802.49C1155.74 1802.49 1168.64 1815.35 1168.64 1831.2V2139.82C1168.64 2150.07 1163.15 2159.54 1154.24 2164.68L770.991 2385.12C766.54 2387.69 761.558 2388.96 756.587 2388.96C751.615 2388.96 746.649 2387.69 742.204 2385.13L359.067 2165.18C350.144 2160.06 344.636 2150.58 344.636 2140.31V1831.84C344.636 1815.99 357.544 1803.14 373.46 1803.14C389.372 1803.14 402.263 1815.99 402.263 1831.84V2123.73L756.57 2327.11L1111.01 2123.23V1831.2C1111.01 1815.35 1123.91 1802.49 1139.83 1802.49ZM1813.36 1713.04C1868.1 1713.04 1912.63 1757.4 1912.63 1811.94V1874.53C1912.63 1920.89 1880.39 1971.96 1837.09 1982.61L1908.47 2119C1917.45 2135.36 1911.36 2155.9 1894.98 2164.9C1875.38 2175.67 1855.71 2164.86 1848.91 2151.45L1761.36 1985.59H1692.17V2133.53C1692.17 2152.18 1676.95 2167.34 1658.23 2167.34C1639.51 2167.34 1624.29 2152.18 1624.29 2133.53V1811.94C1624.29 1757.4 1668.82 1713.04 1723.56 1713.04H1813.36ZM2473.58 1713.37C2492.29 1713.37 2507.52 1728.54 2507.52 1747.19V2133.86C2507.52 2152.51 2492.29 2167.67 2473.58 2167.67C2454.86 2167.67 2439.63 2152.51 2439.63 2133.86V1747.19C2439.63 1728.54 2454.86 1713.37 2473.58 1713.37ZM2598.46 1713.37C2610.57 1713.37 2621.84 1719.87 2627.89 1730.33L2784.97 2026.85V1747.19C2784.97 1728.54 2800.19 1713.37 2818.91 1713.37C2837.63 1713.37 2852.85 1728.54 2852.85 1747.19V2133.86C2852.85 2149.15 2842.54 2162.74 2827.67 2166.53C2819.5 2168.61 2800.25 2169.39 2789.48 2150.71L2632.41 1867.76V2133.86C2632.41 2152.51 2617.17 2167.67 2598.46 2167.67C2579.75 2167.67 2564.52 2152.51 2564.52 2133.86V1747.19C2564.52 1713.49 2595.51 1713.37 2598.46 1713.37ZM3287.02 1713.37C3305.73 1713.37 3320.97 1728.54 3320.97 1747.19V2100.04H3459.42C3478.14 2100.04 3493.37 2115.21 3493.37 2133.86C3493.37 2152.51 3478.14 2167.67 3459.42 2167.67H3287.02C3268.3 2167.67 3253.08 2152.51 3253.08 2133.86V1747.19C3253.08 1728.54 3268.3 1713.37 3287.02 1713.37ZM1468.08 1713.04C1522.82 1713.04 1567.35 1757.4 1567.35 1811.94V2068.44C1567.35 2122.98 1522.82 2167.34 1468.08 2167.34H1378.28C1323.54 2167.34 1279.01 2122.98 1279.01 2068.44V1811.94C1279.01 1757.4 1323.54 1713.04 1378.28 1713.04H1468.08ZM2003.51 1713.04C2022.22 1713.04 2037.45 1728.21 2037.45 1746.85V2133.52C2037.45 2152.17 2022.22 2167.34 2003.51 2167.34C1984.79 2167.34 1969.56 2152.17 1969.56 2133.52V1746.85C1969.56 1728.21 1984.79 1713.04 2003.51 1713.04ZM2283.45 1713.04C2338.18 1713.04 2382.72 1757.4 2382.72 1811.94C2382.72 1830.58 2367.49 1845.75 2348.77 1845.75C2330.05 1845.75 2314.83 1830.58 2314.83 1811.94C2314.83 1794.7 2300.75 1780.67 2283.45 1780.67H2193.64C2176.35 1780.67 2162.26 1794.7 2162.26 1811.94V2068.44C2162.26 2085.68 2176.35 2099.71 2193.64 2099.71H2283.45C2300.75 2099.71 2314.83 2085.68 2314.83 2068.44V1985.19H2238.54C2219.83 1985.19 2204.6 1970.01 2204.6 1951.37C2204.6 1932.73 2219.83 1917.55 2238.54 1917.55L2348.77 1917.55C2357.84 1917.55 2366.36 1921.07 2372.78 1927.45C2379.18 1933.84 2382.72 1942.33 2382.72 1951.36V2068.44C2382.72 2122.97 2338.18 2167.35 2283.45 2167.35H2193.64C2138.91 2167.35 2094.38 2122.97 2094.38 2068.44V1811.94C2094.38 1757.4 2138.91 1713.04 2193.64 1713.04H2283.45ZM3097.89 1713.37C3152.43 1713.34 3196.77 1756.02 3196.81 1820.37V2132.53C3196.81 2152.56 3181.58 2167.1 3162.87 2167.1C3144.15 2167.1 3128.93 2151.93 3128.93 2133.29V1985.51H2977.53V2133.29C2977.53 2151.93 2962.3 2167.1 2943.59 2167.1C2924.88 2167.1 2909.65 2151.93 2909.65 2133.29V1811.93C2909.65 1757.57 2954.02 1713.37 3008.57 1713.37H3097.89ZM1468.08 1780.67H1378.28C1360.98 1780.67 1346.9 1794.7 1346.9 1811.94V2068.44C1346.9 2085.68 1360.98 2099.71 1378.28 2099.71H1468.08C1485.39 2099.71 1499.47 2085.68 1499.47 2068.44V1811.94C1499.47 1794.7 1485.39 1780.67 1468.08 1780.67ZM742.265 1452.9C751.183 1447.76 762.182 1447.76 771.1 1452.88L1154.24 1673.26C1163.15 1678.39 1168.64 1687.87 1168.64 1698.12C1168.64 1708.38 1163.15 1717.86 1154.24 1722.99L770.997 1943.43C766.541 1945.99 761.559 1947.27 756.582 1947.27C751.616 1947.27 746.656 1945.99 742.205 1943.44L359.068 1723.51C350.145 1718.38 344.653 1708.91 344.637 1698.66C344.637 1688.4 350.118 1678.92 359.03 1673.78L742.265 1452.9ZM1813.36 1780.67H1723.56C1706.25 1780.67 1692.17 1794.7 1692.17 1811.94V1917.95H1813.36C1830.66 1917.95 1844.74 1891.76 1844.74 1874.53V1811.94C1844.74 1794.7 1830.66 1780.67 1813.36 1780.67ZM3097.89 1781.01H3008.57C2991.46 1781.01 2977.53 1794.87 2977.53 1811.93V1917.88H3128.93V1811.93C3128.93 1794.87 3115 1781.01 3097.89 1781.01ZM756.707 1510.9L431.089 1698.58L756.571 1885.42L1082.2 1698.12L756.707 1510.9ZM1677.71 1517.68C1703.59 1517.67 1724.63 1537.93 1724.65 1568.47V1637.07C1724.65 1646.58 1717.43 1653.48 1708.55 1653.48C1699.67 1653.48 1692.44 1646.28 1692.44 1637.43V1564.46C1692.44 1556.37 1685.83 1549.79 1677.71 1549.79H1635.32C1627.2 1549.79 1620.59 1556.37 1620.59 1564.46V1637.43C1620.59 1646.28 1613.36 1653.48 1604.48 1653.48C1595.6 1653.48 1588.38 1646.28 1588.38 1637.43V1564.46C1588.38 1538.67 1609.43 1517.68 1635.32 1517.68H1677.71ZM1522.32 1517.69C1548.21 1517.69 1569.27 1538.67 1569.27 1564.46V1606.69C1569.28 1632.48 1548.96 1653.44 1518.3 1653.46H1478.46C1476.65 1653.46 1474.98 1653.13 1473.39 1652.66C1451.93 1648.71 1435.56 1630.19 1435.02 1607.8C1435.61 1582.55 1455.75 1562.21 1485.94 1562.19H1536.82C1535.72 1555.18 1529.66 1549.78 1522.32 1549.78H1455.93C1447.04 1549.78 1439.82 1542.59 1439.82 1533.74C1439.82 1524.89 1447.04 1517.69 1455.93 1517.69L1522.32 1517.69ZM1856.88 1517.7C1866.43 1517.7 1873.35 1524.89 1873.35 1533.75C1873.35 1542.59 1866.12 1549.79 1857.24 1549.79H1790.85C1782.73 1549.79 1776.12 1556.38 1776.12 1564.47V1606.7C1776.12 1614.79 1782.73 1621.38 1790.85 1621.38H1857.24C1866.12 1621.38 1873.35 1628.57 1873.35 1637.42C1873.35 1646.27 1866.12 1653.47 1857.24 1653.47H1790.85C1764.95 1653.47 1743.9 1632.49 1743.9 1606.7V1564.47C1743.88 1538.68 1764.22 1517.72 1794.87 1517.7H1856.88ZM1982.62 1517.69C2008.51 1517.69 2029.56 1538.67 2029.56 1564.47V1606.7C2029.58 1632.49 2009.25 1653.45 1978.6 1653.47H1940.11C1914.23 1653.47 1893.17 1632.49 1893.17 1606.7V1564.47C1893.15 1538.68 1913.48 1517.72 1944.13 1517.7L1982.62 1517.69ZM1353.44 1450.2C1377.9 1450.2 1397.8 1470.03 1397.8 1494.4V1512.39C1397.8 1539.23 1381.53 1540.91 1381.53 1540.91C1381.53 1540.91 1420.16 1544.97 1420.16 1581.2V1609.17C1420.16 1633.54 1400.26 1653.36 1375.8 1653.36L1323.37 1653.36C1287.03 1653.36 1279.02 1643.31 1279.02 1609.17L1279.03 1490.52C1279.3 1459.08 1283.48 1450.2 1316.55 1450.2H1353.44ZM1375.8 1561.03H1355.5L1351.38 1561.26H1309.35V1609.17C1309.35 1620.21 1311.94 1623.14 1323.37 1623.14H1375.8C1383.53 1623.14 1389.83 1616.87 1389.83 1609.17V1580.44C1389.83 1572.74 1383.53 1561.03 1375.8 1561.03ZM1982.62 1549.79H1940.11C1932 1549.79 1925.39 1556.37 1925.39 1564.47V1606.7C1925.39 1614.79 1932 1621.38 1940.11 1621.38H1946.28L1946.33 1621.37H1982.63C1990.75 1621.37 1997.35 1614.79 1997.35 1606.7V1564.47C1997.35 1556.37 1990.74 1549.79 1982.62 1549.79ZM1537.05 1594.29H1481.91C1474.18 1594.29 1467.88 1600.27 1467.29 1607.83C1467.89 1615.38 1474.18 1621.37 1481.91 1621.37H1522.32C1530.45 1621.37 1537.05 1614.78 1537.05 1606.69V1594.29ZM1353.44 1480.43H1316.55C1305.35 1480.43 1309.35 1483.18 1309.35 1494.4V1531.57H1338.13L1344.12 1531.8H1353.44C1361.17 1531.8 1367.46 1520.09 1367.46 1512.39V1494.4C1367.46 1486.7 1361.17 1480.43 1353.44 1480.43Z" fill="#18AD47"/>
</svg>
