<svg width="5168" height="2432" viewBox="0 0 5168 2432" fill="none" xmlns="http://www.w3.org/2000/svg">
<g clip-path="url(#clip0_233_196)">
<path d="M2528.48 1916.91H2321.71V1630.31H2528.48C2626.22 1631.8 2692.87 1686.98 2692.87 1773.3C2692.87 1859.65 2626.22 1916.91 2528.48 1916.91ZM2556.62 1418.67H2077.33V2432H2321.71V2141.94H2555.13C2812.84 2141.94 2938.67 1958.85 2938.67 1773.3C2938.67 1587.77 2814.31 1418.67 2556.62 1418.67Z" fill="#414141"/>
<path d="M4868.22 2037.09L4403.79 1418.67H4154.67V2432H4403.79V1812.08L4868.22 2432H5117.33V1418.67H4868.22V2037.09Z" fill="#414141"/>
<path d="M2191.55 1110.94V1012.58H2290.45C2335.73 1012.58 2359.4 1024.5 2359.4 1061.77C2359.4 1094.55 2336.42 1110.94 2290.45 1110.94H2191.55ZM2191.55 813.649H2282.79C2326.67 813.649 2347.57 830.036 2347.57 864.311C2347.57 903.801 2332.25 919.454 2282.79 919.454H2191.55V813.649ZM2482.67 1068.47C2482.67 1014.09 2457.6 970.116 2411.64 945.525C2422.08 937.331 2456.21 900.832 2456.21 848.669C2456.21 767.456 2413.03 709.334 2275.83 709.334H2077.33V1216H2303.69C2433.23 1216 2482.67 1151.17 2482.67 1068.47Z" fill="#414141"/>
<path d="M3468.04 906.039L3726.64 1216H3850.67V709.334H3726.64V1018.55L3468.04 709.334H3344V1216H3468.04V906.039Z" fill="#414141"/>
<path d="M4509.33 1115.57L4408.59 1046.39C4384.48 1075.63 4347.93 1094.24 4307.05 1094.24C4234.3 1094.24 4175.29 1035.32 4175.29 962.627C4175.29 890.002 4234.3 831.094 4307.05 831.094C4347.78 831.094 4384.33 849.625 4408.38 878.72L4509.12 809.471C4462.77 748.556 4389.52 709.334 4307.05 709.334C4166.87 709.334 4053.33 822.761 4053.33 962.627C4053.33 1102.56 4166.87 1216 4307.05 1216C4389.66 1216 4463 1176.63 4509.33 1115.57Z" fill="#414141"/>
<path d="M4914.67 831.035C4987.31 831.035 5046.23 890.021 5046.23 962.662C5046.23 1035.3 4987.31 1094.21 4914.67 1094.21C4842.02 1094.21 4783.11 1035.3 4783.11 962.662C4783.11 890.021 4842.02 831.035 4914.67 831.035ZM4914.67 1216C5054.59 1216 5168 1102.58 5168 962.662C5168 822.742 5054.59 709.334 4914.67 709.334C4774.74 709.334 4661.33 822.742 4661.33 962.662C4661.33 1102.58 4774.74 1216 4914.67 1216Z" fill="#414141"/>
<path d="M2915.28 847.916L2983.79 1016.1C2960.96 1019.59 2937.76 1021.47 2914.55 1021.47C2891.37 1021.47 2868.4 1019.63 2845.74 1016.18L2915.28 847.916ZM2802.16 1121.61C2838.98 1129.2 2876.56 1133.1 2914.55 1133.1C2948.36 1133.1 2982.25 1130.01 3015.3 1123.94C3019.12 1123.23 3022.93 1122.33 3026.75 1121.55L3065.23 1216H3192L2980.48 709.334H2847.9L2634.67 1216H2763.14L2802.16 1121.61Z" fill="#414141"/>
<path d="M3445.33 2047.2C3398.21 2047.2 3351.5 2043.48 3305.41 2036.49L3446.81 1695.85L3586.14 2036.32C3539.73 2043.39 3492.52 2047.2 3445.33 2047.2ZM3311.46 1418.67L2888 2432H3141.21L3219.57 2243.22C3293.54 2258.41 3369.04 2266.19 3445.34 2266.19C3513.26 2266.19 3581.36 2260.02 3647.71 2247.87C3655.38 2246.46 3663.04 2244.66 3670.71 2243.08L3748.02 2432H4002.67L3577.76 1418.67H3311.46Z" fill="#414141"/>
<path d="M734.661 1623.68C568.468 1623.68 433.378 1491.22 433.378 1328.29C433.378 1165.34 568.468 1032.9 734.661 1032.9C900.865 1032.9 1035.96 1165.34 1035.96 1328.29C1035.96 1491.22 900.865 1623.68 734.661 1623.68ZM734.661 608C329.549 608 0 931.099 0 1328.29V2432H433.378V1986.29L467.487 1999.4C552.754 2032.02 642.55 2048.58 734.661 2048.58C1139.78 2048.58 1469.33 1725.48 1469.33 1328.29C1469.33 931.099 1139.78 608 734.661 608Z" fill="#414141"/>
<path d="M0 405.333H405.333V0H0V405.333Z" fill="#00C5FF"/>
</g>
<defs>
<clipPath id="clip0_233_196">
<rect width="5168" height="2432" fill="white"/>
</clipPath>
</defs>
</svg>
