<svg width="2646" height="2646" viewBox="0 0 2646 2646" fill="none" xmlns="http://www.w3.org/2000/svg">
<path d="M1230.19 1206.26V1039.38H1282.96C1298.91 1038.16 1313.63 1041.84 1327.13 1050.43C1332.04 1054.11 1335.72 1059.02 1338.17 1065.15C1340.63 1071.29 1341.85 1077.42 1341.85 1083.56C1341.85 1092.15 1339.4 1099.51 1334.49 1105.64C1329.58 1111.78 1322.22 1116.69 1313.63 1119.14C1323.45 1121.6 1332.04 1126.51 1339.4 1133.87C1345.54 1141.23 1349.22 1149.82 1349.22 1159.64C1349.22 1165.77 1347.99 1173.13 1345.54 1179.27C1343.08 1185.4 1338.17 1190.31 1333.26 1195.22C1320.99 1203.81 1306.27 1208.72 1290.32 1207.49L1230.19 1206.26ZM1244.92 1114.23H1286.64C1297.68 1114.23 1307.5 1111.78 1316.09 1105.64C1319.77 1103.19 1322.22 1099.51 1324.68 1094.6C1325.9 1090.92 1327.13 1086.01 1327.13 1081.1C1327.13 1076.2 1327.13 1072.51 1324.68 1067.61C1322.22 1065.15 1319.77 1061.47 1316.09 1059.02C1306.27 1052.88 1295.23 1050.43 1284.18 1051.65H1246.14L1244.92 1114.23ZM1244.92 1126.51V1195.22H1290.32C1301.36 1195.22 1312.4 1192.77 1320.99 1185.4C1324.68 1181.72 1327.13 1178.04 1329.58 1174.36C1332.04 1169.45 1332.04 1164.54 1332.04 1159.64C1332.04 1154.73 1330.81 1149.82 1329.58 1146.14C1327.13 1142.46 1324.68 1137.55 1320.99 1135.09C1312.4 1128.96 1301.36 1125.28 1290.32 1126.51H1244.92Z" fill="#565859"/>
<path d="M1469.47 1159.64H1388.48L1368.85 1207.49H1352.9L1421.61 1039.38H1436.34L1503.83 1207.49H1487.88L1469.47 1159.64ZM1392.16 1147.36H1464.56L1428.98 1055.33L1392.16 1147.36Z" fill="#565859"/>
<path d="M1651.07 1206.26H1636.35L1533.28 1062.7V1206.26H1517.32V1039.38H1533.28L1636.35 1182.95V1039.38H1651.07V1206.26Z" fill="#565859"/>
<path d="M1811.82 1154.73C1811.82 1162.09 1809.37 1170.68 1805.69 1176.81C1802 1184.18 1797.1 1190.31 1790.96 1195.22C1777.46 1205.04 1761.51 1209.94 1745.56 1208.72C1733.29 1208.72 1721.02 1206.26 1709.97 1198.9C1700.16 1192.77 1691.57 1184.18 1686.66 1173.13C1680.52 1160.86 1678.07 1147.36 1678.07 1133.87V1111.78C1678.07 1098.28 1680.52 1084.78 1686.66 1072.51C1691.57 1061.47 1700.16 1051.65 1711.2 1045.52C1722.24 1039.38 1734.52 1035.7 1748.01 1035.7C1763.96 1034.47 1781.14 1039.38 1793.41 1050.43C1804.46 1060.24 1811.82 1074.97 1813.05 1090.92H1797.1C1797.1 1078.65 1790.96 1067.61 1782.37 1060.24C1773.78 1051.65 1762.74 1047.97 1750.47 1047.97C1749.24 1047.97 1748.01 1047.97 1746.79 1047.97C1739.42 1047.97 1732.06 1049.2 1725.93 1051.65C1719.79 1054.11 1713.66 1059.02 1708.75 1063.92C1698.93 1077.42 1692.8 1094.6 1694.02 1110.55V1131.41C1692.8 1148.59 1697.7 1164.54 1707.52 1178.04C1712.43 1184.18 1718.56 1187.86 1724.7 1191.54C1730.83 1193.99 1738.2 1196.45 1745.56 1195.22C1757.83 1196.45 1771.33 1192.77 1781.14 1184.18C1789.73 1175.59 1795.87 1164.54 1795.87 1152.27L1811.82 1154.73Z" fill="#565859"/>
<path d="M1968.88 1131.41C1968.88 1146.14 1966.43 1159.64 1960.29 1173.13C1955.39 1184.18 1946.8 1193.99 1935.75 1200.13C1924.71 1206.26 1911.21 1209.94 1898.94 1209.94C1889.13 1209.94 1880.54 1208.72 1870.72 1205.04C1862.13 1201.36 1853.54 1196.45 1847.41 1189.08C1833.91 1173.13 1826.54 1153.5 1827.77 1132.64V1114.23C1827.77 1100.74 1830.23 1086.01 1836.36 1073.74C1841.27 1062.7 1849.86 1052.88 1860.9 1046.75C1871.95 1040.61 1884.22 1036.93 1897.71 1036.93C1909.99 1036.93 1923.48 1039.38 1934.53 1046.75C1945.57 1052.88 1954.16 1062.7 1959.07 1073.74C1965.2 1086.01 1967.66 1099.51 1967.66 1113.01L1968.88 1131.41ZM1952.93 1114.23C1954.16 1097.05 1949.25 1079.88 1938.21 1066.38C1928.39 1055.33 1913.67 1049.2 1900.17 1049.2C1885.44 1049.2 1870.72 1054.11 1860.9 1063.92C1859.68 1065.15 1859.68 1065.15 1858.45 1066.38C1847.41 1079.88 1842.5 1097.05 1843.72 1115.46V1132.64C1842.5 1149.82 1848.63 1167 1858.45 1179.27C1863.36 1184.18 1869.49 1189.08 1875.63 1191.54C1881.76 1193.99 1889.13 1196.45 1896.49 1196.45C1903.85 1196.45 1911.21 1195.22 1917.35 1192.77C1923.48 1190.31 1930.85 1186.63 1935.75 1181.72C1936.98 1180.5 1936.98 1180.5 1938.21 1179.27C1948.02 1165.77 1954.16 1148.59 1952.93 1130.19L1952.93 1114.23Z" fill="#565859"/>
<path d="M1295.23 1478.67V1608.74H1230.19V1256.57H1374.98C1410.57 1254.12 1446.15 1265.16 1474.38 1287.25C1486.65 1297.07 1496.46 1309.34 1502.6 1322.83C1508.74 1336.33 1512.42 1352.28 1511.19 1368.24C1512.42 1384.19 1508.74 1398.91 1502.6 1413.64C1496.46 1427.13 1486.65 1440.63 1474.38 1449.22C1444.93 1470.08 1408.12 1479.9 1372.53 1477.44L1295.23 1478.67ZM1295.23 1429.59H1373.76C1393.39 1430.82 1411.8 1424.68 1426.52 1413.64C1432.66 1408.73 1437.57 1401.37 1441.25 1394C1444.93 1386.64 1446.15 1378.05 1444.93 1369.46C1444.93 1360.87 1443.7 1352.28 1440.02 1344.92C1436.34 1337.56 1431.43 1330.2 1425.29 1324.06C1410.57 1311.79 1392.16 1305.66 1373.76 1306.88H1292.77V1429.59H1295.23Z" fill="#565859"/>
<path d="M1611.81 1608.74H1546.77V1256.57H1611.81V1608.74Z" fill="#565859"/>
<path d="M1963.98 1608.74H1898.94L1729.61 1358.42V1608.74H1665.8V1256.57H1730.83L1898.94 1506.89V1256.57H1963.98L1963.98 1608.74Z" fill="#565859"/>
<path d="M2235.16 1451.68H2080.55V1559.66H2260.92V1608.74H2014.29V1256.57H2258.47V1305.66H2079.32V1402.59H2233.93V1451.68H2235.16Z" fill="#565859"/>
<path d="M782.312 1594.02L849.801 1646.78L917.29 1594.02V1552.3L849.801 1608.74L782.312 1552.3V1594.02Z" fill="#661739"/>
<path d="M782.312 1407.5V1449.22L849.801 1501.99L917.29 1449.22V1407.5L849.801 1463.95L782.312 1407.5Z" fill="#661739"/>
<path d="M563.896 1552.3V1594.02L631.384 1646.78L698.873 1594.02V1552.3L631.384 1608.74L563.896 1552.3Z" fill="#661739"/>
<path d="M1020.36 979.257H460.822C441.189 979.257 421.556 987.846 406.831 1001.34C392.107 1016.07 384.744 1035.7 384.744 1055.33V1606.29C384.744 1618.56 387.198 1629.6 392.107 1639.42C397.015 1650.46 404.377 1659.05 414.194 1666.41V1646.78L481.682 1594.02V1552.3L414.194 1608.74V1501.99L523.402 1416.09L632.611 1501.99L700.1 1449.22V1408.73L632.611 1465.17V1358.42L741.82 1272.53L851.028 1358.42L918.517 1305.66V1263.94L851.028 1320.38V1212.4L960.237 1126.5L1069.45 1212.4V1319.15L1001.96 1262.71V1304.43L1069.45 1358.42V1465.17L1001.96 1408.73V1449.22L1069.45 1501.99V1608.74L1001.96 1552.3V1594.02L1069.45 1646.78V1666.41C1078.04 1659.05 1085.4 1650.46 1091.53 1639.42C1097.67 1628.37 1098.9 1617.33 1098.9 1606.29V1056.56C1098.9 1035.7 1090.31 1017.3 1076.81 1002.57C1060.86 987.846 1041.22 979.257 1020.36 979.257Z" fill="#661739"/>
</svg>
