<svg width="3841" height="2530" viewBox="0 0 3841 2530" fill="none" xmlns="http://www.w3.org/2000/svg">
<g clip-path="url(#clip0_233_27)">
<path fill-rule="evenodd" clip-rule="evenodd" d="M2496.78 912.787C2487.34 997.927 2447.65 1089.88 2390.54 1152.51C2360.74 1185.25 2337.98 1215.59 2232.83 1287.14C2096.16 1362.83 1975.2 1413.28 1904.78 1467.99C1834.31 1413.28 1713.39 1362.83 1576.67 1287.14C1471.56 1215.59 1448.81 1185.25 1418.95 1152.51C1361.89 1089.88 1322.2 997.934 1312.76 912.787C1301.21 802.936 1343.24 705.596 1412.64 638.304C1434.7 613.062 1419.98 600.482 1409.5 580.463C1390.66 544.699 1386.36 528.984 1354.79 466.946C1337.96 433.763 1329.4 409.432 1333.8 388.053C1349.56 331.238 1409.5 309.465 1430.55 283.972C1434.26 279.425 1441.9 276.829 1444.2 272.38C1448.02 264.895 1445.23 256.612 1445.23 256.612C1445.18 256.43 1421.83 211.214 1424.23 204.01C1429.07 189.479 1508.35 146.169 1573.53 119.895C1652.36 91.517 1695.23 79.9702 1765.99 62.0539C1853.24 39.9851 1904.78 0 1904.78 0C1904.78 0 1956.31 39.9851 2043.55 62.0615C2114.31 79.9702 2157.12 91.517 2235.97 119.902C2301.2 146.177 2380.47 189.495 2385.31 204.017C2387.71 211.222 2364.37 256.43 2364.27 256.62C2364.27 256.62 2361.49 264.902 2365.35 272.388C2367.62 276.836 2375.28 279.433 2379.02 283.98C2400.05 309.48 2459.99 331.253 2475.74 388.061C2480.15 409.439 2471.6 433.77 2454.71 466.953C2423.19 528.992 2418.88 544.707 2400.05 580.471C2389.53 600.482 2374.8 613.069 2396.91 638.311C2466.28 705.588 2508.33 802.936 2496.78 912.787ZM2458.91 889.632C2457.88 800.233 2427.41 719.291 2362.22 655.142C2323.27 619.37 2340.1 611.65 2352.72 587.857C2371.66 552.093 2368.42 552.283 2400.04 485.834C2414.33 455.786 2439.97 413.318 2430.53 384.88C2418.94 359.684 2361.44 320.981 2357.95 318.674C2338.77 305.851 2325.41 296.605 2311.7 283.972C2305 272.919 2312.79 267.142 2312.79 267.142C2312.79 267.142 2337.36 227.551 2333.79 220.848C2314.85 185.122 2135.07 126.203 2035.19 103.064C1987.13 91.9574 1904.78 46.2937 1904.78 46.2937C1904.78 46.2937 1822.38 91.9574 1774.41 103.064C1674.49 126.203 1494.66 185.122 1475.77 220.848C1472.2 227.551 1496.77 267.142 1496.77 267.142C1496.77 267.142 1504.55 272.926 1497.85 283.972C1484.19 296.605 1470.73 305.844 1451.56 318.674C1448.12 320.974 1390.58 359.684 1378.97 384.88C1369.54 413.318 1395.18 455.786 1409.51 485.834C1441.13 552.291 1437.89 552.093 1456.79 587.857C1469.42 611.65 1486.24 619.37 1447.34 655.142C1382.16 719.299 1351.67 800.233 1350.66 889.632C1356.92 984.277 1387.4 1063.15 1479.98 1161.96C1509.78 1194.74 1551.47 1229.28 1657.66 1286.06C1757.59 1337.59 1831.18 1368.08 1903.71 1421.71C1976.28 1368.08 2051.99 1337.59 2151.91 1286.06C2258.1 1229.28 2299.78 1194.75 2329.63 1161.96C2422.11 1063.15 2452.6 984.277 2458.91 889.632Z" fill="black"/>
<path fill-rule="evenodd" clip-rule="evenodd" d="M2381.11 915.907C2371.66 906.463 2345.59 913.963 2342.35 919.05C2331.88 884.212 2311.03 854.346 2285.5 835.215C2285.5 835.215 2285.39 828.672 2288.57 825.483C2294.54 822.302 2311.71 824.443 2325.42 818.142C2335.89 813.298 2337.99 845.441 2366.39 841.236C2386.53 838.252 2386.4 817.056 2374.79 819.167C2371.22 818.043 2366.48 826.705 2362.22 827.586C2347.44 830.767 2345.39 808.652 2345.39 799.208C2345.39 795.003 2353.75 768.569 2347.44 750.797C2339.57 728.492 2314.45 716.209 2303.31 708.769C2300.16 706.666 2294.61 693.654 2301.2 688.758C2316.96 677.211 2286.48 666.681 2281.24 692.964C2278.35 707.456 2284.22 711.313 2283.33 719.299C2282.26 728.751 2253.7 748.064 2277.03 765.593C2289.66 775.037 2293.52 759.527 2287.55 751.882C2276.01 737.154 2328.54 715.078 2330.67 770.816C2331.49 793.97 2293.32 804.439 2284.91 807.62C2220.76 807.62 2168.74 746.158 2168.74 670.409C2168.74 611.786 2200.65 561.234 2244.4 541.564C2262.31 521.605 2335.9 524.786 2332.78 493.228C2330.57 471.698 2309.62 460.584 2298.03 472.176C2292.79 482.698 2310.66 483.784 2309.62 494.253C2308.65 503.985 2291.17 506.582 2279.14 498.459C2273.01 494.351 2270.72 488.028 2269.65 477.422C2265.44 435.38 2349.6 404.899 2349.6 404.899C2349.6 404.899 2280.16 383.863 2278.06 363.889C2276.3 347.119 2284.37 344.956 2291.76 354.4C2296.12 360.025 2308.6 348.076 2293.82 334.434C2282.27 327.047 2265.38 333.599 2260.19 351.265C2254.96 369.135 2189.73 290.243 2181.3 267.149C2177.24 255.944 2181.46 231.089 2194.95 235.591C2204.46 238.772 2202.36 245.035 2199.17 249.241C2195.4 254.342 2198.73 263.232 2205.53 263.968C2212.34 264.75 2222.85 257.174 2223.4 244.01C2224.42 218.753 2176.09 199.819 2163.45 238.772C2160.81 246.834 2153.95 235.591 2148.73 231.385C2137.08 222.04 2064.61 135.716 1967.86 134.638C1930.92 134.243 1947.85 143.489 1929.99 142.032C1917.42 140.946 1908.99 123.091 1903.71 116.774C1900.59 122.02 1890.06 140.954 1877.43 142.032C1859.58 143.489 1876.55 134.25 1839.6 134.638C1742.82 135.723 1670.39 222.04 1658.74 231.385C1653.46 235.591 1646.61 246.834 1644.01 238.772C1631.38 199.827 1583.04 218.76 1584.07 244.01C1584.61 257.174 1595.12 264.75 1601.93 263.968C1608.73 263.224 1612.05 254.335 1608.25 249.241C1605.07 245.035 1603.01 238.772 1612.45 235.591C1626.01 231.089 1630.23 255.944 1626.1 267.149C1617.69 290.243 1552.51 369.135 1547.27 351.265C1542.09 333.599 1525.2 327.055 1513.6 334.434C1498.88 348.084 1511.35 360.033 1515.71 354.4C1523.05 344.956 1531.12 347.119 1529.42 363.889C1527.25 383.863 1457.87 404.899 1457.87 404.899C1457.87 404.899 1491.98 418.01 1515.71 438.523C1528.53 449.629 1539.24 462.702 1537.78 477.43C1536.76 488.035 1534.46 494.359 1528.33 498.466C1516.25 506.589 1498.82 503.993 1497.85 494.26C1496.77 483.792 1514.63 482.714 1509.4 472.184C1497.85 460.592 1476.86 471.706 1474.7 493.236C1471.58 524.794 1545.17 521.613 1563.03 541.571C1606.83 561.241 1638.73 611.794 1638.73 670.416C1638.73 746.173 1586.71 807.627 1522.56 807.627C1514.14 804.447 1475.91 793.978 1476.8 770.823C1478.9 715.086 1531.46 737.154 1519.91 751.89C1513.95 759.535 1517.81 775.044 1530.43 765.6C1553.77 748.071 1525.2 728.75 1524.13 719.306C1523.25 711.328 1529.11 707.464 1526.23 692.971C1520.99 666.697 1490.45 677.219 1506.22 688.765C1512.86 693.67 1507.3 706.674 1504.16 708.777C1492.99 716.217 1467.86 728.508 1459.98 750.804C1453.71 768.576 1462.08 795.01 1462.08 799.216C1462.08 808.66 1459.98 830.774 1445.25 827.593C1440.98 826.713 1436.24 818.043 1432.62 819.174C1421.07 817.071 1420.89 838.267 1441.04 841.243C1469.42 845.449 1475.78 812.866 1483.13 816.047C1503.04 824.557 1512.87 822.31 1518.83 825.491C1522.02 828.671 1521.98 835.223 1521.98 835.223C1496.38 854.354 1475.59 884.219 1465.12 919.057C1461.88 913.971 1435.81 906.471 1426.36 915.914C1414.77 926.444 1418.39 939.608 1418.97 944.353C1420.01 952.719 1438.07 954.821 1435.81 937.991C1433.7 922.238 1454.74 927.53 1457.87 943.275C1462.08 967.454 1455.57 977.141 1456.8 985.363C1467.36 1052.65 1515.52 1094.67 1571.99 1094.67C1581.37 1094.67 1590.29 1093.79 1598.85 1091.79C1608.87 1089.43 1614.56 1107.3 1622.98 1122.03C1622.98 1122.03 1588.28 1135.68 1592.5 1161.96C1596.71 1188.29 1620.88 1201.94 1638.74 1178.79C1646.08 1169.36 1633.49 1168.28 1619.84 1168.28C1609.47 1160.93 1610.5 1148.26 1635.59 1143.06C1666.1 1136.75 1693.39 1201.94 1703.96 1229.28C1714.44 1256.6 1772.28 1332.35 1851.16 1314.44C1856.4 1313.26 1903.71 1384.9 1903.71 1384.9C1903.71 1384.9 1951.08 1313.25 1956.32 1314.44C2035.2 1332.35 2093.03 1256.6 2103.53 1229.28C2114.03 1201.94 2141.39 1136.75 2171.87 1143.06C2196.99 1148.26 2198 1160.93 2187.64 1168.28C2173.99 1168.28 2161.4 1169.36 2168.75 1178.79C2186.56 1201.94 2210.78 1188.29 2214.99 1161.96C2219.21 1135.68 2184.5 1122.03 2184.5 1122.03C2192.92 1107.3 2198.59 1089.43 2208.63 1091.79C2217.2 1093.79 2226.11 1094.67 2235.49 1094.67C2291.97 1094.67 2345.41 1052.65 2348.53 982.182C2348.93 973.914 2346.39 957.425 2349.62 943.275C2352.74 927.522 2373.8 922.238 2371.69 937.991C2369.43 954.829 2387.44 952.719 2388.52 944.353C2389.03 939.608 2392.7 926.436 2381.11 915.907ZM1891.12 219.823C1900.57 206.113 1903.69 189.328 1905.79 197.694C1909.42 212.14 1921.6 218.745 1916.32 222.951C1908.25 229.411 1887.6 224.872 1891.12 219.823ZM1903.69 1350.2L1876.39 1310.23L1903.69 1272.41L1931.05 1310.23L1903.69 1350.2ZM2331.68 978.993C2331.68 1033.61 2288.13 1077.84 2234.45 1077.84C2211.54 1077.87 2189.37 1069.69 2171.96 1054.79C2159.92 1042.17 2150.81 1022.06 2150.81 1001.65C2150.81 963.582 2179.3 932.745 2211.78 932.745C2216 935.729 2221.28 930.642 2228.63 953.736C2238.12 957.957 2239.14 950.213 2239.14 941.164C2239.14 926.436 2223.39 920.113 2204.46 912.787C2190.56 907.351 2202.5 877.607 2181.3 875.937C2167.65 874.904 2162.37 881.221 2165.55 890.65C2167.65 898.871 2175.14 891.287 2179.2 893.83C2192.91 902.249 2173.72 926.125 2173.72 926.125C2151.95 945.453 2138.19 972.715 2138.19 1001.09C2138.19 1019.15 2143.82 1035.01 2151.9 1050.52C2161.25 1062.21 2169.81 1073.12 2179.85 1079.58C2179.85 1079.58 2189.67 1103.12 2164.53 1124.11C2151.9 1134.64 2139.28 1120.93 2097.19 1194.53C2095.05 1198.4 2087.84 1183.22 2071.99 1177.74C2061.42 1171.42 2029.9 1177.74 2027.81 1205.1C2025.84 1230.3 2050.96 1217.73 2057.26 1196.68C2065.33 1191.4 2072.73 1200.99 2078.26 1211.37C2085.89 1225.71 2069.84 1259.77 2026.78 1287.13C1987.82 1311.31 1918.44 1299.75 1920.55 1253.46C1922.12 1219.25 1968.95 1211.37 1962.59 1238.72C1958.81 1255.26 2002.56 1257.67 1981.56 1221.89C1960.52 1186.12 1912.13 1217.74 1903.71 1238.72C1895.3 1217.73 1846.94 1186.12 1825.92 1221.89C1804.86 1257.67 1848.67 1255.26 1844.85 1238.72C1838.53 1211.37 1885.36 1219.25 1886.88 1253.46C1888.99 1299.75 1819.6 1311.3 1780.69 1287.13C1737.59 1259.77 1721.54 1225.71 1729.18 1211.37C1734.75 1201 1742.09 1191.4 1750.21 1196.68C1756.52 1217.73 1781.63 1230.31 1779.61 1205.1C1777.56 1177.74 1746.01 1171.43 1735.48 1177.74C1719.63 1183.22 1712.43 1198.4 1710.23 1194.53C1668.19 1120.93 1655.57 1134.64 1642.94 1124.11C1617.8 1103.12 1627.63 1079.58 1627.63 1079.58C1636.63 1069.4 1647.24 1064.32 1656.61 1052.62C1664.85 1036.69 1669.17 1019.03 1669.22 1001.09C1669.22 972.707 1655.47 945.453 1633.75 926.125C1633.75 926.125 1614.56 902.249 1628.21 893.83C1632.33 891.287 1639.76 898.871 1641.93 890.65C1645.05 881.221 1643.83 878.48 1626.11 877.015C1600.92 874.904 1616.93 907.343 1603.02 912.779C1584.08 920.105 1568.28 926.429 1568.28 941.157C1568.28 950.206 1569.36 957.942 1578.8 953.728C1586.19 930.635 1591.43 935.721 1595.63 932.737C1628.17 932.737 1656.61 963.575 1656.61 1001.64C1656.61 1022.05 1647.54 1042.16 1635.52 1054.78C1618.1 1069.67 1595.94 1077.85 1573.02 1077.84C1519.34 1077.84 1475.79 1033.6 1475.79 978.986C1469.43 895.948 1519.92 845.441 1565.93 820.002C1617.65 797.834 1654.55 740.13 1654.55 672.466C1654.55 600.384 1616.67 544.745 1555.65 519.503C1539.26 508.533 1547.38 506.081 1552.52 494.245C1554.28 490.184 1554.08 484.156 1554.62 477.415C1556.19 457.79 1554.23 467.09 1552.52 457.441C1551.92 454.222 1547.28 450.692 1548.3 440.61C1552.52 400.678 1594.64 417.813 1597.73 433.269C1600.91 449.037 1595.28 447.458 1591.42 451.14C1573.55 444.816 1579.81 456.279 1580.89 459.544C1584.07 468.988 1594.6 472.321 1607.21 463.765C1617.69 460.584 1622 445.014 1625.08 445.894C1645.24 451.679 1654.54 429.064 1646.12 427.985C1637.7 426.961 1627.18 437.49 1619.84 427.985C1594.54 395.546 1552.66 397.3 1545.17 411.155C1531.46 436.405 1519.91 422.74 1519.91 422.74C1519.91 422.74 1501.04 409.143 1503.08 408.027C1535.68 390.156 1550.45 379.931 1600.91 330.221C1622.98 304.963 1676.12 234.202 1690.27 222.951C1736.56 186.154 1823.8 122.005 1874.31 161.983C1894.42 177.933 1886.88 195.591 1879.54 201.952C1871.12 210.318 1865.35 181.394 1861.68 182.973C1850.07 185.122 1867.99 204.01 1859.58 212.436C1851.75 220.886 1837.6 210.66 1838.53 201.952C1840.63 181.941 1794.4 219.823 1850.07 235.576C1861.98 238.901 1861.68 231.37 1870.08 232.395C1878.5 233.473 1888.98 243.995 1903.71 241.892C1918.44 243.995 1928.96 233.473 1937.39 232.395C1945.8 231.37 1945.5 238.893 1957.35 235.576C2013.09 219.823 1966.79 181.941 1968.95 201.952C1969.88 210.652 1955.73 220.886 1947.91 212.436C1939.5 204.01 1957.35 185.122 1945.8 182.973C1942.08 181.394 1936.36 210.318 1927.95 201.952C1920.55 195.591 1913.06 177.933 1933.17 161.983C1983.62 121.997 2070.92 186.154 2117.21 222.951C2131.36 234.194 2184.49 304.963 2206.58 330.221C2256.97 379.931 2266.52 386.983 2304.4 408.027C2306.4 409.151 2286.49 423.78 2286.49 423.78C2286.49 423.78 2277.05 431.166 2262.31 411.155C2252.97 398.484 2212.88 395.539 2187.64 427.985C2180.29 437.49 2169.77 426.961 2161.36 427.985C2152.94 429.064 2162.24 451.679 2182.4 445.894C2185.48 445.014 2189.74 460.584 2200.27 463.765C2212.88 472.321 2223.41 468.988 2226.59 459.544C2227.67 456.279 2233.94 444.816 2216.02 451.14C2212.19 447.466 2206.58 449.037 2209.76 433.269C2212.83 417.813 2254.96 400.686 2259.19 440.61C2260.21 450.692 2255.51 454.215 2254.96 457.441C2253.26 467.09 2251.31 457.783 2252.82 477.415C2253.41 484.164 2253.16 490.184 2254.96 494.245C2260.05 506.081 2268.23 508.533 2251.78 519.503C2190.82 544.745 2152.93 600.384 2152.93 672.466C2152.93 740.138 2189.78 797.834 2241.56 820.002C2287.54 845.441 2337.98 895.956 2331.68 978.993Z" fill="black"/>
<path fill-rule="evenodd" clip-rule="evenodd" d="M2094.2 711.517C2074.39 672.671 2040.77 645.751 2003.62 635.184L2005.72 627.843C2025.69 598.387 2034.15 559.381 2035.18 522.638C2035.18 515.646 2034.54 508.943 2033.32 502.626C2037.54 499.499 2052.41 508.009 2064.6 525.819C2078.25 545.777 2094.05 529 2080.35 518.432C2069.77 510.309 2059.35 471.159 2058.27 463.772C2057.25 456.371 2057.25 429.071 2059.36 424.873C2064.06 415.467 2059.36 389.094 2046.73 414.343C2034.1 439.593 2016.19 433.277 2016.19 433.277C2006.75 413.318 1981.37 372.84 1936.34 361.786C1942.6 345.973 1965.69 324.838 1999.26 311.234C2016.63 304.25 2030.43 299.543 2044.63 298.662C2049.87 289.218 2050.95 282.894 2046.73 282.894C2020.41 282.894 1982.97 294.98 1967.01 302.329C1953.75 308.493 1936.04 313.094 1916.42 314.817C1900.61 316.184 1885.68 315.538 1873.07 313.238C1851.29 309.328 1825.91 303.946 1803.82 296.605C1780.67 280.791 1778.57 304.971 1782.49 308.152C1796.38 312.168 1811.51 318.378 1826.18 326.546C1839.89 336.886 1849.43 348.774 1857.46 359.684C1835.63 367.647 1814.93 383.415 1805.93 398.591C1796.88 383.703 1776.33 370.152 1760.71 370.152C1722.29 365.992 1702.87 391.827 1702.87 415.907C1702.87 427.606 1708.44 438.173 1717.5 446C1717.5 446 1731.25 453.243 1740.3 445.902C1743.77 443.017 1740.74 438.12 1740.74 434.355C1732.33 423.787 1735.32 406.957 1753.37 406.957C1771.32 406.957 1785.95 423.833 1785.95 442.721C1747.01 463.233 1715.49 500.174 1715.49 541.085C1715.49 584.297 1741.78 622.559 1794.37 641.5V851.773C1794.37 851.773 1796.43 874.912 1772.26 845.449C1766.09 837.926 1759.09 834.198 1751.21 822.355C1722.84 777.139 1701.5 737.154 1694.45 737.154C1685.01 737.154 1676.6 738.194 1687.1 755.025C1696.75 770.492 1701.84 788.366 1701.79 806.595C1701.79 823.38 1705.31 843.984 1669.19 872.802C1653.44 885.434 1668.17 898.059 1681.83 885.434C1695.54 872.802 1708.16 874.912 1712.32 874.912C1723.95 874.912 1751.21 877.022 1777.55 905.408C1786.55 908.634 1792.22 916.658 1792.22 926.983C1792.22 940.048 1781.9 950.616 1769.13 950.616C1756.35 950.616 1745.99 940.048 1745.99 926.983C1745.99 920.902 1748.63 920.12 1752.3 915.914C1752.3 915.914 1748.09 902.265 1732.34 913.811C1726.6 917.972 1713.39 932.745 1717.6 943.267C1718.64 969.542 1753.08 998.223 1802.75 972.722C1810.92 985.894 1826.09 1003.95 1841.66 1013.73C1857.75 1023.82 1874.1 1025.48 1872.73 1029.88C1860.59 1068.38 1825.91 1080.81 1825.91 1080.81C1801.83 1084.77 1780.68 1084.19 1777.56 1064.18C1761.8 1031.59 1800.65 1040.01 1789.1 1017.93C1779.6 1014.75 1767.03 1015.79 1761.89 1018.13C1745.21 1028.5 1734.38 1044.8 1734.38 1063.14C1734.38 1094.45 1765.95 1119.92 1804.85 1119.92C1821.84 1119.92 1837.39 1115.07 1849.58 1107.05C1865.29 1096.62 1883.74 1088.35 1893.17 1073.62C1903.69 1088.35 1937.66 1107.82 1946.82 1113.61C1963.64 1124.12 2016.19 1130.44 1978.36 1105.19C1917.7 1064.76 1926.85 1023.17 1926.85 1023.17C1967.85 1022.14 2038.32 965.328 2048.15 895.508C2108.15 860.374 2128.94 779.675 2094.2 711.517ZM1794.38 595.191C1768.06 581.541 1758.62 561.628 1758.62 541.564C1758.62 520.77 1773.49 499.969 1794.38 484.801V595.191ZM1879.52 392.259V421.677C1854.28 419.574 1834.3 426.961 1833.29 426.224C1838.07 410.175 1854.48 393.884 1879.52 392.259ZM1879.52 456.864V611.012C1879.52 611.012 1856.43 613.069 1844.83 608.848C1836.95 605.971 1835.39 599.404 1835.39 599.404V464.828C1849.74 460.462 1864.55 457.789 1879.52 456.864ZM1879.42 985.598C1852.17 977.194 1839.65 951.398 1838.51 933.785C1849.72 935.888 1863.77 941.172 1879.42 940.094V985.598ZM1879.52 892.775C1879.52 899.228 1858.72 897.277 1845.85 887.537C1837.78 881.426 1835.38 871.784 1835.38 871.784V706.666H1879.51L1879.52 892.775ZM1880.6 670.902H1836.41V647.809C1853.24 649.911 1861.66 650.936 1880.6 650.936V670.902ZM1926.85 397.406C1948.57 402.888 1965.8 418.109 1970.98 433.277C1968.93 433.277 1935.25 421.684 1926.85 423.787V397.406ZM1926.69 457.547C1939.31 457.547 1937.37 461.654 1955.22 462.732C1963.6 465.814 1982.96 468.168 1987.81 475.357C1993.83 484.125 1994.86 502.376 1994.13 522.63C1991.29 574.504 1982.58 595.199 1965.75 617.275C1963.01 625.056 1954.34 623.242 1945.78 621.481C1939.5 620.272 1933.18 619.229 1926.85 618.353L1926.69 457.547ZM1927.92 983.199V940.086C1956.88 938.423 1981.36 933.2 1992.02 927.514C1991 943.267 1962.57 971.887 1927.92 983.199ZM1998.4 879.125C1981.54 888.615 1966.78 894.878 1953.13 895.956C1927.93 894.878 1926.85 898.302 1926.85 893.845V721.409C1926.85 721.409 2006.74 744.549 2009.92 840.226C2010.18 848.523 2011.99 872.802 1998.4 879.125ZM2047.8 828.808L2046.93 826.508C2045.94 804.735 2038.6 779.197 2024.85 754.38C2003.18 715.237 1967.85 687.733 1946.82 682.495C1949.55 679.853 1949.35 679.511 1952.73 677.651C1975.2 659.355 2026.53 682.654 2050.55 726.002C2074.04 758.206 2070.42 808.455 2047.8 828.808ZM0.0917969 2004.86H210.274C384.091 2004.86 393.877 2117.25 393.877 2138.2C393.877 2168.93 382.725 2212.23 345.723 2242.97C375.725 2265.96 406.456 2310.64 406.456 2371.42C406.456 2397.89 398.774 2439.83 353.406 2478.93C318.462 2508.93 261.904 2513.81 229.845 2513.81H0.0917969V2004.86ZM104.818 2208.03H223.536C268.213 2208.03 294.047 2190.6 294.047 2150.09C294.047 2106.1 265.419 2092.15 229.116 2092.15H104.818V2208.03ZM104.818 2426.52H227.696C259.156 2426.52 306.626 2425.15 306.626 2355.32C306.626 2298.07 266.846 2295.33 247.275 2295.33H104.818V2426.52ZM694.088 2513.81C687.088 2504.77 682.921 2489.4 683.619 2476.14C649.419 2508.25 619.363 2529.86 562.115 2529.86C485.333 2529.86 447.648 2486.57 450.442 2413.3C452.545 2360.21 473.437 2308.53 560.05 2293.9C596.315 2292.47 635.405 2284.11 658.46 2276.42C675.929 2270.16 684.295 2252.01 682.92 2233.86C682.92 2210.13 663.349 2199.65 618.68 2199.65C562.844 2199.65 555.859 2233.86 554.425 2261.07H462.293C463.697 2140.3 567.004 2129.15 618.68 2129.15C656.403 2129.15 689.191 2135.41 708.041 2143.08C745.764 2158.44 775.766 2189.19 775.766 2249.22V2455.89C775.083 2472.61 784.868 2489.4 797.402 2500.57V2513.81H694.088ZM682.92 2335.8C654.983 2352.55 617.298 2351.11 592.155 2356.01C562.107 2361.63 541.162 2386.75 549.528 2417.47C555.153 2439.83 572.584 2455.9 614.467 2448.9C672.406 2439.83 682.92 2399.33 682.92 2357.43V2335.8ZM849.056 2135.42H946.783V2192.66H948.202C967.052 2152.88 1003.36 2129.15 1041.04 2129.15C1127.64 2129.15 1186.28 2165.46 1186.28 2260.38V2513.81H1088.51V2289.03C1088.51 2255.5 1084.29 2215.72 1017.98 2215.72C958.671 2215.72 946.783 2248.56 946.783 2279.24V2513.81H849.056V2135.42ZM1486.39 2276.43C1471.7 2216.4 1444.49 2215.71 1414.5 2214.29C1380.98 2212.23 1357.25 2233.86 1346.76 2270.16C1343.24 2281.33 1332.09 2335.11 1343.98 2380.47C1359.34 2439.81 1385.18 2448.18 1415.87 2448.88C1440.34 2450.3 1471.02 2446.08 1486.39 2381.83H1579.95C1580.64 2433.51 1533.9 2483.83 1519.9 2495.65C1491.28 2519.39 1470.34 2527.75 1408.92 2529.86C1290.89 2534.08 1249 2437.71 1242.05 2382.58C1237.85 2349.05 1234.37 2284.11 1255.32 2235.97C1299.99 2134.72 1350.98 2133.3 1413.77 2129.15C1451.5 2127.05 1492.02 2136.15 1513.63 2150.09C1556.2 2176.61 1579.95 2245.72 1579.95 2276.44H1486.39V2276.43ZM1668.62 2483.84C1630.89 2449.57 1612.74 2390.95 1612.74 2329.49C1612.74 2268.07 1630.89 2209.4 1668.62 2175.2C1702.1 2144.51 1750.29 2129.16 1799.18 2129.16C1848.01 2129.16 1896.21 2144.51 1929.69 2175.2C1967.41 2209.4 1985.55 2268.07 1985.55 2329.49C1985.55 2390.95 1967.4 2449.57 1929.69 2483.84C1896.2 2514.51 1848.01 2529.86 1799.18 2529.86C1750.29 2529.86 1702.1 2514.51 1668.62 2483.84ZM1729.33 2255.5C1721.67 2270.18 1711.18 2298.07 1711.18 2329.49C1711.18 2360.96 1721.67 2388.85 1729.33 2403.48C1747.49 2434.95 1774.7 2446.09 1799.18 2446.09C1823.59 2446.09 1850.84 2434.94 1868.94 2403.48C1876.63 2388.85 1887.11 2360.95 1887.11 2329.49C1887.11 2298.07 1876.63 2270.18 1868.94 2255.5C1850.83 2224.08 1823.58 2212.92 1799.18 2212.92C1774.7 2212.91 1747.49 2224.08 1729.33 2255.5ZM2504.86 2159.88C2506.24 2118.67 2472.03 2080.95 2400.09 2079.58C2349.15 2078.89 2311.47 2096.31 2307.94 2138.2C2305.16 2173.16 2317.04 2180.09 2340.04 2189.2C2351.93 2201.77 2448.3 2217.09 2467.81 2220.6C2495.76 2225.51 2555.8 2238.08 2587.9 2270.88C2646.57 2332.28 2619.32 2453.1 2555.8 2494.3C2512.49 2522.21 2453.17 2529.2 2396.62 2529.88C2370.77 2530.58 2309.31 2521.51 2271.63 2494.3C2226.26 2461.47 2203.9 2411.21 2200.43 2363.01H2302.37C2302.37 2376.27 2306.58 2397.22 2323.99 2415.37C2347.04 2439.11 2384.71 2446.8 2419.66 2445.41C2454.56 2444.67 2487.38 2434.2 2500.65 2421.68C2522.96 2400.74 2527.87 2360.96 2502.71 2335.8C2469.23 2300.91 2368.68 2300.91 2303.06 2278.54C2247.9 2259.71 2202.49 2219.92 2210.91 2137.51C2219.28 2056.53 2277.94 1996.49 2402.18 1996.49C2429.43 1996.49 2524.38 1998.59 2573.95 2061.44C2600.47 2095.64 2607.41 2143.09 2603.24 2159.89H2504.86V2159.88ZM2890.95 2513.81C2883.94 2504.77 2879.8 2489.4 2880.48 2476.14C2846.28 2508.25 2816.28 2529.86 2759.02 2529.86C2682.19 2529.86 2644.46 2486.57 2647.31 2413.3C2649.36 2360.21 2670.35 2308.53 2756.91 2293.9C2793.22 2292.47 2832.28 2284.11 2855.32 2276.42C2872.79 2270.16 2881.16 2252.01 2879.8 2233.86C2879.8 2210.13 2860.23 2199.65 2815.54 2199.65C2759.7 2199.65 2752.72 2233.86 2751.33 2261.07H2659.15C2660.57 2140.3 2763.92 2129.15 2815.54 2129.15C2853.22 2129.15 2886.06 2135.41 2904.9 2143.08C2942.58 2158.44 2972.62 2189.19 2972.62 2249.22V2455.89C2971.94 2472.61 2981.73 2489.4 2994.26 2500.57V2513.81H2890.95ZM2879.8 2335.8C2851.84 2352.55 2814.12 2351.11 2789.02 2356.01C2759.02 2361.63 2738.03 2386.75 2746.45 2417.47C2752.02 2439.83 2769.49 2455.9 2811.38 2448.9C2869.32 2439.83 2879.81 2399.33 2879.81 2357.43V2335.8H2879.8ZM3011.03 2135.56H3064.08V2099.1C3064.08 2042.58 3092.71 2004.86 3156.22 2004.86H3216.94V2077.46H3182.74C3169.47 2077.46 3161.8 2085.84 3161.8 2103.3V2135.55H3219.75V2200.5H3161.8V2513.81H3064.08V2200.5H3011.03V2135.56ZM3262.21 2135.42H3359.94V2208.71H3361.36C3367.62 2186.4 3372.51 2173.14 3406.72 2149.4C3423.51 2136.81 3445.82 2124.25 3476.56 2129.15V2228.95C3434.65 2224.07 3371.83 2218.49 3359.95 2300.9V2513.81H3262.21V2135.42ZM3736.92 2513.81C3729.93 2504.77 3725.76 2489.4 3726.46 2476.14C3692.26 2508.25 3662.19 2529.86 3604.96 2529.86C3528.17 2529.86 3490.49 2486.57 3493.28 2413.3C3495.38 2360.21 3516.27 2308.53 3602.89 2293.9C3639.15 2292.47 3678.29 2284.11 3701.34 2276.42C3718.77 2270.16 3727.13 2252.01 3725.76 2233.86C3725.76 2210.13 3706.19 2199.65 3661.51 2199.65C3605.68 2199.65 3598.69 2233.86 3597.31 2261.07H3505.11C3506.53 2140.3 3609.83 2129.15 3661.51 2129.15C3699.19 2129.15 3732.02 2135.41 3750.87 2143.08C3788.59 2158.44 3818.6 2189.19 3818.6 2249.22V2455.89C3817.91 2472.61 3827.7 2489.4 3840.22 2500.57V2513.81H3736.92ZM3725.77 2335.8C3697.83 2352.55 3660.14 2351.11 3635.01 2356.01C3604.97 2361.63 3584.05 2386.75 3592.44 2417.47C3598 2439.83 3615.43 2455.9 3657.32 2448.9C3715.26 2439.83 3725.77 2399.33 3725.77 2357.43V2335.8H3725.77Z" fill="black"/>
</g>
<defs>
<clipPath id="clip0_233_27">
<rect width="3840.32" height="2530" fill="white"/>
</clipPath>
</defs>
</svg>
