<svg width="6569" height="1151" viewBox="0 0 6569 1151" fill="none" xmlns="http://www.w3.org/2000/svg">
<g clip-path="url(#clip0_233_22)">
<path d="M866.598 526.724C864.987 484.844 852.906 443.769 831.966 406.721L642.7 79.7335C628.203 54.7664 618.538 28.1886 612.901 0L604.847 13.6916C558.134 95.0358 558.134 194.904 604.847 276.248L756.26 538.805C802.972 620.149 802.972 720.017 756.26 801.362L748.206 815.053C742.568 786.864 732.903 760.287 718.406 736.125L579.88 495.314L491.287 342.29C476.79 317.323 467.125 290.745 461.488 263.362L453.434 277.054C406.721 357.592 406.721 457.461 452.628 538.805L604.847 801.362C651.559 882.706 651.559 982.574 604.847 1063.92L596.793 1077.61C591.155 1049.42 580.685 1022.84 566.993 998.682L377.727 670.083C352.76 626.592 340.679 577.464 343.095 527.529C140.138 579.88 0 692.634 0 823.107C0 1004.32 270.61 1150.9 604.847 1150.9C939.083 1150.9 1209.69 1004.32 1209.69 823.107C1209.69 692.634 1069.56 579.88 866.598 526.724ZM1437.62 1087.27C1439.23 1047.81 1446.48 1009.15 1459.36 972.909C1524.6 1001.9 1595.47 1016.4 1667.15 1017.21C1772.66 1017.21 1831.45 983.379 1831.45 915.727C1831.45 848.074 1787.96 819.08 1681.65 772.368L1623.66 747.401C1516.55 700.688 1444.06 640.284 1444.06 520.281C1444.06 390.613 1533.46 307.658 1717.89 307.658C1788.77 306.853 1858.84 318.128 1925.68 340.679C1923.27 379.338 1915.21 417.191 1903.13 454.239C1843.53 433.299 1780.71 422.024 1717.09 421.218C1618.03 421.218 1572.92 459.877 1572.92 520.281C1572.92 580.685 1617.22 613.706 1696.95 647.532L1758.16 673.305C1902.33 734.514 1962.73 799.751 1962.73 910.089C1962.73 1040.56 1863.67 1130.77 1671.18 1130.77C1577.76 1130.77 1501.24 1117.07 1437.62 1087.27ZM2573.22 544.443V1112.24H2458.85L2452.41 1043.78C2420.19 1093.72 2371.87 1125.13 2292.14 1125.13C2142.33 1125.13 2042.46 1016.4 2042.46 825.523C2042.46 625.787 2149.58 512.227 2359.79 512.227C2440.33 512.227 2507.17 521.086 2573.22 544.443ZM2447.58 982.574V625.787C2417.78 620.954 2387.98 618.538 2358.18 619.344C2228.51 619.344 2168.91 699.077 2168.91 826.329C2168.91 942.304 2215.62 1023.65 2326.77 1023.65C2370.26 1023.65 2412.94 1009.15 2447.58 982.574ZM3212.69 730.487V1112.24H3087.86V752.233C3087.86 662.835 3058.06 619.344 2933.22 619.344C2900.2 620.149 2867.18 622.565 2834.16 628.203V1112.24H2709.33V544.443C2789.06 525.113 2876.04 513.032 2936.45 513.032C3145.04 512.227 3212.69 592.766 3212.69 730.487ZM3559.01 1018.82C3592.03 1018.82 3625.05 1013.18 3656.46 1001.9C3653.24 1035.73 3648.41 1074.39 3641.97 1107.41C3608.14 1120.3 3572.7 1125.93 3536.46 1125.13C3414.85 1125.13 3337.53 1069.56 3337.53 931.029V335.042C3377.8 322.961 3420.48 316.518 3462.36 316.518V531.556H3659.68C3658.07 566.993 3654.05 603.236 3648.41 638.673H3462.36V917.337C3462.36 990.628 3498.61 1018.82 3559.01 1018.82ZM4229.09 543.637V1111.44H4114.73L4107.48 1042.98C4075.27 1092.91 4026.94 1124.32 3947.21 1124.32C3797.41 1124.32 3697.54 1015.59 3697.54 824.718C3697.54 624.981 3804.65 511.422 4014.86 511.422C4096.21 512.227 4163.05 521.086 4229.09 543.637ZM4104.26 982.574V625.787C4074.46 620.954 4044.66 618.538 4014.86 619.344C3885.19 619.344 3824.79 699.077 3824.79 826.329C3824.79 942.304 3871.5 1023.65 3982.65 1023.65C4026.94 1023.65 4069.63 1009.15 4104.26 982.574ZM4868.57 730.487V1112.24H4743.74V752.233C4743.74 662.835 4713.94 619.344 4589.1 619.344C4556.08 620.149 4523.06 622.565 4490.85 628.203V1112.24H4365.2V544.443C4444.94 525.113 4531.92 513.032 4592.32 513.032C4801.73 512.227 4868.57 592.766 4868.57 730.487ZM5502.41 316.518V1111.44H5388.05L5381.61 1038.95C5349.39 1092.11 5301.07 1125.13 5218.92 1125.13C5069.11 1125.13 4969.25 1016.4 4969.25 825.523C4969.25 625.787 5076.36 512.227 5285.76 512.227C5317.17 512.227 5348.58 515.449 5379.19 521.086V334.236C5417.85 320.545 5462.14 316.518 5502.41 316.518ZM5379.19 980.158V630.619C5346.17 623.371 5313.15 619.344 5279.32 619.344C5155.29 619.344 5096.5 696.661 5096.5 826.329C5096.5 942.304 5143.21 1023.65 5254.35 1023.65C5299.46 1023.65 5343.75 1008.35 5379.19 980.158ZM6131.42 869.014H5732.75C5748.86 970.493 5807.66 1018.82 5918.8 1018.82C5988.06 1018.82 6055.72 1004.32 6118.54 975.325C6113.7 1008.35 6107.26 1051.84 6099.21 1088.89C6042.02 1114.66 5982.42 1125.13 5915.58 1125.13C5706.18 1125.13 5605.5 1009.15 5605.5 815.053C5605.5 645.922 5683.63 511.422 5882.56 511.422C6060.55 511.422 6137.86 628.203 6137.86 771.562C6137.86 804.583 6135.45 836.799 6131.42 869.014ZM5730.34 764.314H6012.22C6012.22 670.889 5962.29 616.928 5876.11 616.928C5786.72 616.928 5740 667.667 5730.34 764.314ZM6568.75 517.059C6568.75 553.302 6565.53 588.739 6557.47 624.176C6526.06 620.954 6494.65 619.344 6463.24 619.344C6432.64 619.344 6402.03 621.76 6371.43 625.787V1112.24H6246.59V544.443C6299.75 526.724 6389.95 513.032 6460.02 513.032C6495.46 512.227 6532.5 513.838 6568.75 517.059Z" fill="#EC0000"/>
</g>
<defs>
<clipPath id="clip0_233_22">
<rect width="6568.75" height="1150.9" fill="white"/>
</clipPath>
</defs>
</svg>
